<svg width="36" height="36" viewBox="0 0 36 36" fill="none" xmlns="http://www.w3.org/2000/svg">
<path d="M35.4757 17.9722C35.4757 27.656 27.6255 35.5069 17.941 35.5069C8.25645 35.5069 0.40625 27.656 0.40625 17.9722C0.40625 8.28839 8.25645 0.4375 17.941 0.4375C27.6255 0.4375 35.4757 8.28839 35.4757 17.9722Z" fill="#404041" fill-opacity="0.7"/>
<path d="M17.9438 26.1269C21.9062 23.0861 23.9158 21.3885 25.1978 19.1406C27.0015 15.9771 25.9085 13.2955 23.6252 12.2454C23.1148 12.0121 22.5626 11.8804 22.0003 11.858C21.4381 11.8355 20.8769 11.9226 20.3489 12.1144C19.821 12.3062 19.3367 12.5988 18.924 12.9754C18.5112 13.3521 18.1781 13.8053 17.9438 14.3091C17.7093 13.8056 17.3762 13.3527 16.9635 12.9763C16.5508 12.5999 16.0667 12.3075 15.5389 12.1159C15.0111 11.9242 14.4501 11.8372 13.8881 11.8596C13.3261 11.8821 12.7741 12.0136 12.2638 12.2468C9.98117 13.2962 8.88816 15.9778 10.6912 19.142C11.9711 21.3919 13.9821 23.0868 17.9438 26.1269Z" fill="#DC1010"/>
</svg>
