<svg width="109" height="19" viewBox="0 0 109 19" fill="none" xmlns="http://www.w3.org/2000/svg">
<path d="M8.55338 2.25058C8.92019 1.50733 9.98004 1.50733 10.3468 2.25058L11.8639 5.32443C12.0095 5.61958 12.2911 5.82415 12.6168 5.87148L16.009 6.36439C16.8292 6.48358 17.1568 7.49155 16.5632 8.07008L14.1086 10.4627C13.8729 10.6925 13.7654 11.0235 13.821 11.3479L14.4005 14.7264C14.5406 15.5433 13.6832 16.1662 12.9495 15.7805L9.91545 14.1854C9.62413 14.0323 9.2761 14.0323 8.98477 14.1854L5.9507 15.7805C5.21707 16.1662 4.35964 15.5433 4.49975 14.7264L5.0792 11.3479C5.13484 11.0235 5.02729 10.6925 4.79161 10.4627L2.33699 8.07008C1.74347 7.49155 2.07098 6.48358 2.8912 6.36439L6.2834 5.87148C6.60911 5.82415 6.89068 5.61958 7.03634 5.32443L8.55338 2.25058Z" fill="#52AF29"/>
<path d="M31.0612 2.25058C31.428 1.50733 32.4878 1.50733 32.8547 2.25058L34.3717 5.32443C34.5174 5.61958 34.7989 5.82415 35.1246 5.87148L38.5168 6.36439C39.3371 6.48358 39.6646 7.49155 39.0711 8.07008L36.6164 10.4627C36.3807 10.6925 36.2732 11.0235 36.3288 11.3479L36.9083 14.7264C37.0484 15.5433 36.191 16.1662 35.4573 15.7805L32.4233 14.1854C32.1319 14.0323 31.7839 14.0323 31.4926 14.1854L28.4585 15.7805C27.7249 16.1662 26.8674 15.5433 27.0076 14.7264L27.587 11.3479C27.6427 11.0235 27.5351 10.6925 27.2994 10.4627L24.8448 8.07008C24.2513 7.49155 24.5788 6.48358 25.399 6.36439L28.7912 5.87148C29.1169 5.82415 29.3985 5.61958 29.5442 5.32443L31.0612 2.25058Z" fill="#52AF29"/>
<path d="M53.5768 2.25058C53.9436 1.50733 55.0035 1.50733 55.3703 2.25058L56.8873 5.32443C57.033 5.61958 57.3146 5.82415 57.6403 5.87148L61.0325 6.36439C61.8527 6.48358 62.1802 7.49155 61.5867 8.07008L59.1321 10.4627C58.8964 10.6925 58.7888 11.0235 58.8445 11.3479L59.4239 14.7264C59.564 15.5433 58.7066 16.1662 57.973 15.7805L54.9389 14.1854C54.6476 14.0323 54.2995 14.0323 54.0082 14.1854L50.9741 15.7805C50.2405 16.1662 49.3831 15.5433 49.5232 14.7264L50.1026 11.3479C50.1583 11.0235 50.0507 10.6925 49.815 10.4627L47.3604 8.07008C46.7669 7.49155 47.0944 6.48358 47.9146 6.36439L51.3068 5.87148C51.6325 5.82415 51.9141 5.61958 52.0598 5.32443L53.5768 2.25058Z" fill="#52AF29"/>
<path d="M76.0846 2.25058C76.4514 1.50733 77.5113 1.50733 77.8781 2.25058L79.3951 5.32443C79.5408 5.61958 79.8224 5.82415 80.1481 5.87148L83.5403 6.36439C84.3605 6.48358 84.688 7.49155 84.0945 8.07008L81.6399 10.4627C81.4042 10.6925 81.2966 11.0235 81.3523 11.3479L81.9317 14.7264C82.0718 15.5433 81.2144 16.1662 80.4808 15.7805L77.4467 14.1854C77.1554 14.0323 76.8073 14.0323 76.516 14.1854L73.4819 15.7805C72.7483 16.1662 71.8909 15.5433 72.031 14.7264L72.6105 11.3479C72.6661 11.0235 72.5585 10.6925 72.3229 10.4627L69.8682 8.07008C69.2747 7.49155 69.6022 6.48358 70.4225 6.36439L73.8147 5.87148C74.1404 5.82415 74.4219 5.61958 74.5676 5.32443L76.0846 2.25058Z" fill="#52AF29"/>
<path d="M98.6003 2.25058C98.9671 1.50733 100.027 1.50733 100.394 2.25058L101.911 5.32443C102.056 5.61958 102.338 5.82415 102.664 5.87148L106.056 6.36439C106.876 6.48358 107.204 7.49155 106.61 8.07008L104.155 10.4627C103.92 10.6925 103.812 11.0235 103.868 11.3479L104.447 14.7264C104.587 15.5433 103.73 16.1662 102.996 15.7805L99.9623 14.1854C99.671 14.0323 99.323 14.0323 99.0316 14.1854L95.9976 15.7805C95.2639 16.1662 94.4065 15.5433 94.5466 14.7264L95.1261 11.3479C95.1817 11.0235 95.0742 10.6925 94.8385 10.4627L92.3839 8.07008C91.7903 7.49155 92.1179 6.48358 92.9381 6.36439L96.3303 5.87148C96.656 5.82415 96.9376 5.61958 97.0832 5.32443L98.6003 2.25058Z" fill="#52AF29"/>
</svg>
