<svg width="37" height="36" viewBox="0 0 37 36" fill="none" xmlns="http://www.w3.org/2000/svg">
<path d="M36.0147 17.9722C36.0147 27.656 28.1645 35.5069 18.48 35.5069C8.79552 35.5069 0.945312 27.656 0.945312 17.9722C0.945312 8.28839 8.79552 0.4375 18.48 0.4375C28.1645 0.4375 36.0147 8.28839 36.0147 17.9722Z" fill="#404041" fill-opacity="0.7"/>
<path d="M18.4829 26.1269C22.4453 23.0861 24.4548 21.3885 25.7369 19.1406C27.5406 15.9771 26.4476 13.2955 24.1643 12.2454C23.6538 12.0121 23.1016 11.8804 22.5394 11.858C21.9771 11.8355 21.4159 11.9226 20.888 12.1144C20.36 12.3062 19.8758 12.5988 19.463 12.9754C19.0503 13.3521 18.7172 13.8053 18.4829 14.3091C18.2484 13.8056 17.9153 13.3527 17.5026 12.9763C17.0899 12.5999 16.6057 12.3075 16.078 12.1159C15.5502 11.9242 14.9892 11.8372 14.4272 11.8596C13.8651 11.8821 13.3131 12.0136 12.8029 12.2468C10.5202 13.2962 9.42723 15.9778 11.2302 19.142C12.5102 21.3919 14.5212 23.0868 18.4829 26.1269Z" fill="white"/>
</svg>
