<svg width="19" height="19" viewBox="0 0 19 19" fill="none" xmlns="http://www.w3.org/2000/svg">
<path d="M12.281 5.10315L10.764 2.0293C10.2137 0.914429 8.62398 0.914426 8.07376 2.0293L6.55672 5.10315C6.48389 5.25072 6.34311 5.35301 6.18025 5.37667L2.78805 5.86959C1.55772 6.04836 1.06645 7.56032 1.95673 8.42813L4.41135 10.8208C4.52919 10.9357 4.58297 11.1012 4.55515 11.2634L3.97569 14.6418C3.76553 15.8672 5.05167 16.8016 6.15212 16.2231L9.18619 14.628C9.33185 14.5514 9.50587 14.5514 9.65153 14.628L12.6856 16.2231C13.786 16.8016 15.0722 15.8672 14.862 14.6418L14.2826 11.2634C14.2548 11.1012 14.3085 10.9357 14.4264 10.8208L16.881 8.42813C17.7713 7.56032 17.28 6.04837 16.0497 5.86959L12.6575 5.37667C12.4946 5.35301 12.3538 5.25072 12.281 5.10315Z" stroke="#52AF29"/>
</svg>
