<svg width="19" height="19" viewBox="0 0 19 19" fill="none" xmlns="http://www.w3.org/2000/svg">
<path d="M8.47525 2.25058C8.84207 1.50733 9.90191 1.50733 10.2687 2.25058L11.7858 5.32443C11.9314 5.61958 12.213 5.82415 12.5387 5.87148L15.9309 6.36439C16.7511 6.48358 17.0786 7.49155 16.4851 8.07008L14.0305 10.4627C13.7948 10.6925 13.6873 11.0235 13.7429 11.3479L14.3224 14.7264C14.4625 15.5433 13.605 16.1662 12.8714 15.7805L9.83733 14.1854C9.54601 14.0323 9.19797 14.0323 8.90665 14.1854L5.87257 15.7805C5.13894 16.1662 4.28151 15.5433 4.42162 14.7264L5.00108 11.3479C5.05672 11.0235 4.94917 10.6925 4.71348 10.4627L2.25886 8.07008C1.66535 7.49155 1.99286 6.48358 2.81308 6.36439L6.20528 5.87148C6.53099 5.82415 6.81255 5.61958 6.95821 5.32443L8.47525 2.25058Z" fill="#52AF29"/>
</svg>
