<svg width="23" height="22" viewBox="0 0 23 22" fill="none" xmlns="http://www.w3.org/2000/svg">
<g id="Group 1261157606">
<path id="Vector" d="M12.1548 20.4069L11.6068 19.9864C7.67279 16.9675 5.50534 15.1677 4.12014 12.7331L12.1548 20.4069ZM12.1548 20.4069L12.7027 19.9864M12.1548 20.4069L12.7027 19.9864M12.7027 19.9864C16.6385 16.966 18.8035 15.164 20.1906 12.732L20.1906 12.7319M12.7027 19.9864L20.1906 12.7319M20.1906 12.7319C21.1863 10.9857 21.4321 9.27762 21.0221 7.80466C20.6121 6.33142 19.5736 5.19935 18.2122 4.57322L18.2102 4.57233M20.1906 12.7319L18.2102 4.57233M18.2102 4.57233C17.5931 4.29028 16.926 4.13132 16.2472 4.10418C15.5684 4.07704 14.8906 4.18224 14.2526 4.41399C13.6145 4.64575 13.0285 4.99969 12.5283 5.45613C12.3969 5.57601 12.2721 5.70234 12.1544 5.83457M18.2102 4.57233L12.1544 5.83457M12.1544 5.83457C12.0368 5.70258 11.9121 5.57648 11.7809 5.45681C11.2808 5.00068 10.6948 4.647 10.057 4.41541C9.41922 4.18384 8.74166 4.07872 8.0631 4.10584C7.38453 4.13296 6.71768 4.29181 6.10076 4.57365L6.10076 4.57365L6.0988 4.57455C4.73761 5.20037 3.69932 6.33234 3.28927 7.80552C2.87932 9.27834 3.12491 10.9864 4.12003 12.7329L12.1544 5.83457Z" stroke="#00092D" stroke-width="1.8"/>
<path id="Vector_2" d="M1 1L20 19" stroke="#00092D" stroke-width="1.7" stroke-linecap="round" stroke-linejoin="round"/>
</g>
</svg>
