<svg width="25" height="22" viewBox="0 0 25 22" fill="none" xmlns="http://www.w3.org/2000/svg">
<g id="Group 1261157602">
<path id="Subtract" fill-rule="evenodd" clip-rule="evenodd" d="M2.77776 2.77943C1.99117 3.56756 1.59151 4.9427 1.59151 7.4623C1.59151 8.66559 1.68239 9.61312 1.86626 10.3612L3.43076 8.79363C4.35303 7.86956 5.84897 7.86957 6.77123 8.79364L6.90554 8.9282C7.20603 9.22928 7.69259 9.22928 7.99308 8.9282L9.69293 7.22504C10.4249 6.49159 11.5183 6.34029 12.3995 6.77113C11.9515 7.17606 11.5533 7.63506 11.2152 8.13783C11.0702 8.1662 10.9318 8.2367 10.8194 8.3493L9.11954 10.0525C8.19728 10.9765 6.70134 10.9765 5.77907 10.0525L5.64477 9.9179C5.34427 9.61682 4.85772 9.61682 4.55722 9.9179L2.5693 11.9097C3.33443 12.8701 4.72666 13.3331 7.44931 13.3331C7.88879 13.3331 8.24506 13.6894 8.24506 14.1288C8.24506 14.5683 7.88879 14.9246 7.44931 14.9246C4.21838 14.9246 1.97856 14.3108 0.849845 12.1724C0.217848 10.975 0 9.40283 0 7.4623C0 4.88395 0.383112 2.92582 1.65129 1.65516C2.91995 0.384026 4.87542 0 7.44931 0C10.0232 0 11.9787 0.384026 13.2473 1.65516C14.1375 2.54704 14.5916 3.77761 14.7832 5.32362C14.243 5.52421 13.7327 5.78608 13.2606 6.10077C13.1344 4.4231 12.7523 3.41212 12.1209 2.77943C11.3347 1.99178 9.96343 1.59151 7.44931 1.59151C4.93519 1.59151 3.56387 1.99178 2.77776 2.77943ZM13.8194 8.2061C14.1466 7.92028 14.5088 7.67342 14.8985 7.47276C14.8929 7.90742 14.5388 8.25805 14.1029 8.25805C14.003 8.25805 13.9075 8.23967 13.8194 8.2061ZM4.97966 4.33656C4.62403 4.33656 4.33121 4.62716 4.33121 4.98862C4.33121 5.35008 4.62403 5.64068 4.97966 5.64068C5.33636 5.64068 5.6289 5.3498 5.6289 4.98862C5.6289 4.62744 5.33636 4.33656 4.97966 4.33656ZM2.7397 4.98862C2.7397 3.75168 3.74158 2.74505 4.97966 2.74505C6.21825 2.74505 7.22041 3.7514 7.22041 4.98862C7.22041 6.22584 6.21825 7.23219 4.97966 7.23219C3.74158 7.23219 2.7397 6.22556 2.7397 4.98862Z" fill="#00092D"/>
<g id="Group 1261157531">
<circle id="Ellipse 3735" cx="17.3667" cy="14.3086" r="6.65523" stroke="#00092D" stroke-width="1.48541"/>
<path id="Vector" d="M15.5449 12.3262C15.5449 12.0272 15.8343 11.8378 16.0709 11.9818L19.7121 14.1994C19.7678 14.2333 19.8142 14.2831 19.8465 14.3437C19.8788 14.4042 19.8959 14.4733 19.8959 14.5436C19.8959 14.614 19.8788 14.683 19.8465 14.7436C19.8142 14.8041 19.7678 14.854 19.7121 14.8879L16.0709 17.1052C16.0169 17.138 15.956 17.1548 15.8944 17.1537C15.8327 17.1527 15.7724 17.1339 15.7193 17.0991C15.6662 17.0644 15.6222 17.015 15.5917 16.9557C15.5611 16.8964 15.545 16.8293 15.5449 16.7611V12.3262Z" stroke="#00092D" stroke-width="1.48541" stroke-linecap="round" stroke-linejoin="round"/>
</g>
</g>
</svg>
