<svg width="26" height="27" viewBox="0 0 26 27" fill="none" xmlns="http://www.w3.org/2000/svg">
<path d="M25.04 13.2099C25.04 20.5052 19.4349 26.4198 12.52 26.4198C5.60515 26.4198 0 20.5052 0 13.2099C0 5.91452 5.60515 0 12.52 0C19.4349 0 25.04 5.91452 25.04 13.2099Z" fill="#404041" fill-opacity="0.7"/>
<path d="M12.5179 19.3528C15.3471 17.062 16.782 15.7831 17.6974 14.0897C18.9852 11.7064 18.2048 9.6862 16.5745 8.89506C16.21 8.71932 15.8158 8.62013 15.4143 8.60319C15.0129 8.58626 14.6121 8.65192 14.2352 8.79639C13.8582 8.94086 13.5125 9.16131 13.2178 9.44505C12.923 9.7288 12.6852 10.0703 12.5179 10.4498C12.3505 10.0705 12.1126 9.72924 11.818 9.44569C11.5233 9.16214 11.1776 8.94186 10.8008 8.79749C10.4239 8.65313 10.0234 8.58752 9.62208 8.60445C9.22078 8.62137 8.82665 8.72048 8.46231 8.8961C6.83248 9.68672 6.05206 11.7069 7.33943 14.0907C8.25334 15.7857 9.68919 17.0625 12.5179 19.3528Z" fill="#DC1010"/>
</svg>
