<svg width="26" height="27" viewBox="0 0 26 27" fill="none" xmlns="http://www.w3.org/2000/svg">
<path d="M25.04 13.6142C25.04 20.9095 19.4349 26.824 12.52 26.824C5.60515 26.824 0 20.9095 0 13.6142C0 6.31881 5.60515 0.404297 12.52 0.404297C19.4349 0.404297 25.04 6.31881 25.04 13.6142Z" fill="#404041" fill-opacity="0.7"/>
<path d="M12.5179 19.7571C15.3471 17.4663 16.782 16.1874 17.6974 14.4939C18.9852 12.1107 18.2048 10.0905 16.5745 9.29936C16.21 9.12361 15.8158 9.02442 15.4143 9.00749C15.0129 8.99056 14.6121 9.05621 14.2352 9.20069C13.8582 9.34516 13.5125 9.5656 13.2178 9.84935C12.923 10.1331 12.6852 10.4746 12.5179 10.8541C12.3505 10.4748 12.1126 10.1335 11.818 9.84999C11.5233 9.56644 11.1776 9.34616 10.8008 9.20179C10.4239 9.05743 10.0234 8.99182 9.62208 9.00874C9.22078 9.02567 8.82665 9.12478 8.46231 9.3004C6.83248 10.091 6.05206 12.1112 7.33943 14.495C8.25334 16.19 9.68919 17.4668 12.5179 19.7571Z" fill="white"/>
</svg>
