<svg width="10" height="11" viewBox="0 0 10 11" fill="none" xmlns="http://www.w3.org/2000/svg">
<path d="M3.91462 2.28513C4.27404 1.51672 5.3668 1.51672 5.72623 2.28513L6.00621 2.8837C6.14763 3.18602 6.43056 3.39787 6.76047 3.44845L7.47171 3.55749C8.27522 3.68069 8.60381 4.66023 8.03712 5.24306L7.45607 5.84065C7.23537 6.06764 7.13519 6.38572 7.18599 6.69822L7.31381 7.48453C7.44781 8.3089 6.57204 8.92458 5.84169 8.51946L5.30549 8.22203C5.00377 8.05466 4.63708 8.05466 4.33535 8.22203L3.79915 8.51946C3.0688 8.92458 2.19303 8.3089 2.32704 7.48453L2.45486 6.69822C2.50565 6.38572 2.40547 6.06764 2.18477 5.84065L1.60372 5.24306C1.03703 4.66024 1.36562 3.68069 2.16914 3.55749L2.88037 3.44845C3.21029 3.39787 3.49322 3.18602 3.63463 2.8837L3.91462 2.28513Z" fill="#52AF29"/>
</svg>
