<svg width="22" height="22" viewBox="0 0 22 22" fill="none" xmlns="http://www.w3.org/2000/svg">
<g id="Group 1261157598">
<path id="Vector" d="M10.9425 21.1H10.9423L10.2797 21.0987L10.1799 21.0985V21.0658C4.99762 20.6452 0.9 16.2799 0.9 11C0.9 5.43072 5.43072 0.9 11 0.9C16.5693 0.9 21.1 5.43072 21.1 11C21.1 13.181 20.4184 15.2478 19.1265 16.9942L19.1285 21L19.1286 21.1H19.0285H10.9425ZM17.7624 16.2683L17.7624 16.2683C18.948 14.7488 19.5746 12.9273 19.5746 11C19.5746 6.27219 15.7278 2.42564 11 2.42564C6.27218 2.42564 2.42564 6.27218 2.42564 11C2.42564 15.6987 6.24846 19.5443 10.9471 19.573C10.9472 19.573 10.9473 19.573 10.9474 19.573L17.6026 19.5743L17.6009 16.5099L17.6009 16.4754L17.622 16.4483L17.7624 16.2683Z" fill="#00092D" stroke="#00092D" stroke-width="0.2"/>
<path id="Vector_2" d="M14.5442 10.3236H7.61197C7.19054 10.3236 6.84915 9.98193 6.84915 9.56077C6.84915 9.13959 7.19079 8.79795 7.61197 8.79795H14.5442C14.9654 8.79795 15.307 9.13959 15.307 9.56077C15.307 9.98195 14.9654 10.3236 14.5442 10.3236ZM14.544 13.8899H10.4001C9.97889 13.8899 9.63724 13.5482 9.63724 13.127C9.63724 12.7059 9.97889 12.3642 10.4001 12.3642H14.544C14.9652 12.3642 15.3068 12.7059 15.3068 13.127C15.3068 13.5482 14.9652 13.8899 14.544 13.8899Z" fill="#00092D" stroke="#00092D" stroke-width="0.2"/>
</g>
</svg>
