<svg width="21" height="25" viewBox="0 0 21 25" fill="none" xmlns="http://www.w3.org/2000/svg">
<g id="Group 1261157612">
<path id="Vector" d="M13.7501 20.0435C13.7501 19.7565 13.4016 19.531 13.1249 19.531H2.02496C2.31193 15.2981 5.98116 12.1003 10.2141 12.3873C13.1556 12.5923 15.7179 14.4474 16.8249 17.1839C16.9274 17.4504 17.2246 17.5734 17.4911 17.4709C17.7473 17.3787 17.8805 17.0814 17.7883 16.8252C17.7883 16.8252 17.7883 16.815 17.7883 16.8047C16.8351 14.3449 14.8058 12.459 12.2947 11.6801C15.0722 10.2657 16.1792 6.86294 14.7648 4.08539C13.3504 1.30785 9.93737 0.200932 7.15983 1.61533C4.38228 3.02972 3.27536 6.43247 4.68976 9.21002C5.23297 10.2759 6.0939 11.1369 7.15983 11.6801C3.4906 12.8075 0.989782 16.2102 1.00003 20.0435C1.00003 20.3304 1.22551 20.5559 1.51249 20.5559H13.0224C13.3094 20.5559 13.7501 20.3304 13.7501 20.0435ZM5.09973 6.71945C5.09973 4.16739 7.15983 2.10729 9.71189 2.10729C12.2639 2.10729 14.324 4.16739 14.324 6.71945C14.324 9.27151 12.2639 11.3316 9.71189 11.3316C7.17007 11.3316 5.10998 9.26126 5.09973 6.71945Z" fill="#00092D" stroke="#00092D" stroke-width="0.9" stroke-miterlimit="10"/>
<path id="Vector_2" d="M18.158 20.8222L20.2796 18.6903C20.4949 18.4751 20.4949 18.1266 20.2796 17.9011C20.0644 17.6756 19.7159 17.6859 19.4904 17.9011L17.3586 20.0227L15.2268 17.9011C15.0115 17.6859 14.6631 17.6859 14.4376 17.9011C14.2121 18.1164 14.2223 18.4648 14.4376 18.6903L16.5592 20.8222L14.4376 22.954C14.2223 23.159 14.2121 23.4972 14.4171 23.7125L14.4376 23.7329C14.6426 23.9482 14.9808 23.9584 15.196 23.7534L15.2165 23.7329L17.3074 21.6524L19.4392 23.7739C19.6442 23.9892 19.9824 23.9994 20.1976 23.7944L20.2181 23.7739C20.4334 23.569 20.4436 23.2307 20.2386 23.0155L20.2181 22.995L18.1375 20.8222H18.158Z" fill="#00092D" stroke="#00092D" stroke-width="0.7" stroke-miterlimit="10"/>
</g>
</svg>
