<svg width="21" height="24" viewBox="0 0 21 24" fill="none" xmlns="http://www.w3.org/2000/svg">
<g id="Group 1261157610">
<path id="Vector" d="M10.1313 16.7212H10.1314C10.3286 16.7211 10.5177 16.6428 10.6572 16.5033C10.7966 16.3638 10.875 16.1747 10.875 15.9775C10.875 15.7802 10.7966 15.5911 10.6572 15.4516C10.5177 15.3121 10.3286 15.2338 10.1314 15.2337H10.1313H9.75491V13.4116C9.75729 13.3846 9.75829 13.3574 9.75792 13.3303C9.85793 13.2038 9.91425 13.0474 9.91717 12.8849H9.91719V12.8822C9.91719 12.685 9.83884 12.4958 9.69937 12.3563C9.55989 12.2169 9.37073 12.1385 9.17348 12.1385H2.76136C2.64892 12.1385 2.5411 12.0938 2.4616 12.0143C2.38209 11.9348 2.33743 11.827 2.33743 11.7146V2.7574H2.33743L2.33743 2.75634C2.33704 2.70122 2.34761 2.64658 2.36853 2.59558C2.38944 2.54458 2.42029 2.49824 2.45926 2.45926C2.49824 2.42029 2.54457 2.38944 2.59558 2.36853C2.64658 2.34761 2.70122 2.33704 2.75634 2.33743V2.33743H2.7574H15.261C15.3735 2.33743 15.4813 2.38209 15.5608 2.4616C15.6403 2.5411 15.685 2.64892 15.685 2.76136V8.82913C15.685 9.02637 15.7633 9.21554 15.9028 9.35501C16.0423 9.49448 16.2314 9.57284 16.4287 9.57284C16.6259 9.57284 16.8151 9.49448 16.9546 9.35501C17.094 9.21554 17.1724 9.02637 17.1724 8.82913V2.76136C17.1724 2.51035 17.123 2.26181 17.0269 2.02991C16.9308 1.79801 16.7901 1.58731 16.6126 1.40982C16.4351 1.23234 16.2244 1.09155 15.9925 0.995493C15.7606 0.899439 15.512 0.85 15.261 0.85H2.7574C2.25152 0.85 1.76637 1.05096 1.40866 1.40866C1.05096 1.76637 0.85 2.25152 0.85 2.7574V11.7265C0.85 12.2334 1.05137 12.7195 1.40982 13.078C1.76827 13.4364 2.25443 13.6378 2.76136 13.6378H8.26748V15.2337H4.19421C4.19421 15.2337 4.1942 15.2337 4.19419 15.2337C4.09652 15.2337 3.99981 15.253 3.90957 15.2903C3.81932 15.3277 3.73732 15.3825 3.66825 15.4515L3.7743 15.5576L3.66825 15.4515C3.59917 15.5206 3.54438 15.6026 3.507 15.6928C3.46961 15.7831 3.45037 15.8798 3.45037 15.9775C3.45037 16.0751 3.46961 16.1719 3.507 16.2621C3.54438 16.3523 3.59917 16.4343 3.66825 16.5034C3.73732 16.5725 3.81932 16.6272 3.90957 16.6646C3.99981 16.702 4.09652 16.7212 4.19419 16.7212C4.1942 16.7212 4.19421 16.7212 4.19421 16.7212H10.1313Z" fill="#00092D" stroke="#00092D" stroke-width="0.3"/>
<path id="Vector_2" d="M8.04651 4.15084C8.04651 3.99338 7.98396 3.84237 7.87262 3.73102C7.76127 3.61968 7.61026 3.55713 7.4528 3.55713H4.19528C4.03781 3.55713 3.8868 3.61968 3.77546 3.73102C3.66411 3.84237 3.60156 3.99338 3.60156 4.15084C3.60156 4.30831 3.66411 4.45932 3.77546 4.57066C3.8868 4.68201 4.03781 4.74456 4.19528 4.74456H7.4528C7.61026 4.74456 7.76127 4.68201 7.87262 4.57066C7.98396 4.45932 8.04651 4.30831 8.04651 4.15084ZM4.19528 5.64701C4.03781 5.64701 3.8868 5.70956 3.77546 5.8209C3.66411 5.93224 3.60156 6.08326 3.60156 6.24072C3.60156 6.39818 3.66411 6.5492 3.77546 6.66054C3.8868 6.77189 4.03781 6.83444 4.19528 6.83444H6.43952C6.59698 6.83444 6.748 6.77189 6.85934 6.66054C6.97068 6.5492 7.03324 6.39818 7.03324 6.24072C7.03324 6.08326 6.97068 5.93224 6.85934 5.8209C6.748 5.70956 6.59698 5.64701 6.43952 5.64701H4.19528Z" fill="#00092D"/>
<g id="Group 1261157538">
<path id="Vector_3" d="M18.8676 21.8146H18.8597V21.9333H13.8685V12.6535H18.8676V21.8146ZM18.991 11.4414H13.7372C13.1338 11.4414 12.6484 11.9237 12.6484 12.5222V22.0646C12.6484 22.6631 13.1338 23.1454 13.7372 23.1454H18.9989C19.5928 23.1454 20.0876 22.6646 20.0876 22.0646V12.5222C20.0876 11.9237 19.6023 11.4414 18.9989 11.4414H18.991Z" fill="#00092D" stroke="#00092D" stroke-width="0.5"/>
<path id="Vector_4" d="M15.5137 19.3342C15.5137 19.8067 15.8968 20.1776 16.3571 20.1776C16.8196 20.1776 17.2005 19.7966 17.2005 19.3342C17.2005 18.8717 16.8196 18.4907 16.3571 18.4907C15.8946 18.4907 15.5137 18.8717 15.5137 19.3342Z" fill="#00092D" stroke="#00092D" stroke-width="0.5"/>
</g>
</g>
</svg>
