<svg width="18" height="21" viewBox="0 0 18 21" fill="none" xmlns="http://www.w3.org/2000/svg">
<g id="Group 1261157557">
<path id="Vector" d="M6.44116 3.39518C5.78378 4.05257 5.41446 4.94417 5.41446 5.87386V5.87388V8.16079H12.4252V5.87386C12.4252 4.94417 12.0559 4.05257 11.3985 3.39518C10.7411 2.73779 9.84953 2.36848 8.91984 2.36848C7.99016 2.36848 7.09855 2.73779 6.44116 3.39518ZM2.44678 8.35771C2.76063 8.2277 3.09703 8.16079 3.43675 8.16079H3.89599V5.87386C3.89599 4.54145 4.42528 3.26361 5.36744 2.32145C6.3096 1.3793 7.58743 0.85 8.91984 0.85C10.2523 0.85 11.5301 1.3793 12.4722 2.32145C13.4144 3.26361 13.9437 4.54145 13.9437 5.87386V8.16081H14.4029C15.089 8.16081 15.747 8.43336 16.2322 8.9185C16.7173 9.40364 16.9898 10.0616 16.9898 10.7477V18.0585C16.9898 18.7446 16.7173 19.4026 16.2322 19.8877C15.747 20.3729 15.089 20.6454 14.4029 20.6454H3.43675C2.75066 20.6454 2.09267 20.3729 1.60753 19.8877C1.12239 19.4026 0.849844 18.7446 0.849844 18.0585V10.7477C0.849839 10.408 0.916748 10.0716 1.04675 9.75774C1.17675 9.44388 1.3673 9.1587 1.60752 8.91848C1.84774 8.67826 2.13292 8.48771 2.44678 8.35771ZM2.36829 10.7477V18.0585C2.36829 18.3419 2.48086 18.6136 2.68124 18.814C2.88161 19.0144 3.15337 19.127 3.43675 19.127H14.4029C14.6863 19.127 14.9581 19.0144 15.1584 18.814C15.3588 18.6136 15.4714 18.3419 15.4714 18.0585V10.7477C15.4714 10.4643 15.3588 10.1926 15.1584 9.99221C14.9581 9.79183 14.6863 9.67926 14.4029 9.67926H3.43675C3.15337 9.67926 2.88161 9.79183 2.68124 9.99221C2.48086 10.1926 2.36829 10.4643 2.36829 10.7477Z" fill="#52AF29" stroke="#52AF29" stroke-width="0.3"/>
<path id="Vector_2" d="M10.1806 13.7079C10.0766 13.959 9.90053 14.1728 9.67555 14.3228V16.2317C9.67555 16.433 9.59556 16.6261 9.45318 16.7685C9.31079 16.9109 9.11768 16.9909 8.91631 16.9909C8.71495 16.9909 8.52184 16.9109 8.37945 16.7685C8.23707 16.6261 8.15707 16.433 8.15707 16.2317V14.3228C7.9321 14.1728 7.75601 13.959 7.65202 13.7079C7.53675 13.4296 7.51652 13.1211 7.59449 12.8301C7.67246 12.5391 7.84427 12.282 8.08326 12.0986C8.32225 11.9152 8.61507 11.8158 8.91631 11.8158C9.21756 11.8158 9.51038 11.9152 9.74937 12.0986C9.98836 12.282 10.1602 12.5391 10.2381 12.8301C10.3161 13.1211 10.2959 13.4296 10.1806 13.7079Z" fill="#52AF29" stroke="#52AF29" stroke-width="0.3"/>
</g>
</svg>
