<svg width="18" height="21" viewBox="0 0 18 21" fill="none" xmlns="http://www.w3.org/2000/svg">
<g id="Group 1261157581">
<path id="Vector" d="M6.60132 3.39518C5.94394 4.05257 5.57462 4.94417 5.57462 5.87386V5.87388V8.16079H12.5854V5.87386C12.5854 4.94417 12.2161 4.05257 11.5587 3.39518C10.9013 2.73779 10.0097 2.36848 9.08 2.36848C8.15032 2.36848 7.25871 2.73779 6.60132 3.39518ZM2.60693 8.35771C2.92079 8.2277 3.25718 8.16079 3.5969 8.16079H4.05614V5.87386C4.05614 4.54145 4.58544 3.26361 5.5276 2.32145C6.46975 1.3793 7.74759 0.85 9.08 0.85C10.4124 0.85 11.6902 1.3793 12.6324 2.32145C13.5746 3.26361 14.1039 4.54145 14.1039 5.87386V8.16081H14.5631C15.2492 8.16081 15.9072 8.43336 16.3923 8.9185C16.8775 9.40364 17.15 10.0616 17.15 10.7477V18.0585C17.15 18.7446 16.8775 19.4026 16.3923 19.8877C15.9072 20.3729 15.2492 20.6454 14.5631 20.6454H3.5969C2.91081 20.6454 2.25282 20.3729 1.76769 19.8877C1.28255 19.4026 1.01 18.7446 1.01 18.0585V10.7477C1.01 10.408 1.0769 10.0716 1.20691 9.75774C1.33691 9.44388 1.52746 9.1587 1.76768 8.91848C2.00789 8.67826 2.29307 8.48771 2.60693 8.35771ZM2.52845 10.7477V18.0585C2.52845 18.3419 2.64102 18.6136 2.84139 18.814C3.04177 19.0144 3.31353 19.127 3.5969 19.127H14.5631C14.8465 19.127 15.1182 19.0144 15.3186 18.814C15.519 18.6136 15.6315 18.3419 15.6315 18.0585V10.7477C15.6315 10.4643 15.519 10.1926 15.3186 9.99221C15.1182 9.79183 14.8465 9.67926 14.5631 9.67926H3.5969C3.31353 9.67926 3.04177 9.79183 2.84139 9.99221C2.64102 10.1926 2.52845 10.4643 2.52845 10.7477Z" fill="#00092D" stroke="#00092D" stroke-width="0.3"/>
<path id="Vector_2" d="M10.3427 13.707C10.2387 13.958 10.0626 14.1718 9.83766 14.3218V16.2307C9.83766 16.4321 9.75767 16.6252 9.61529 16.7676C9.4729 16.9099 9.27979 16.9899 9.07842 16.9899C8.87706 16.9899 8.68394 16.9099 8.54156 16.7676C8.39918 16.6252 8.31918 16.4321 8.31918 16.2307V14.3218C8.0942 14.1718 7.91812 13.958 7.81413 13.707C7.69886 13.4287 7.67863 13.1201 7.7566 12.8291C7.83457 12.5381 8.00638 12.281 8.24537 12.0976C8.48436 11.9142 8.77718 11.8148 9.07842 11.8148C9.37966 11.8148 9.67249 11.9142 9.91148 12.0976C10.1505 12.281 10.3223 12.5381 10.4002 12.8291C10.4782 13.1201 10.458 13.4287 10.3427 13.707Z" fill="#00092D" stroke="#00092D" stroke-width="0.3"/>
</g>
</svg>
