<svg width="22" height="22" viewBox="0 0 22 22" fill="none" xmlns="http://www.w3.org/2000/svg">
<g id="Group 1261157596">
<path id="Vector" d="M9.41111 20.6038L9.41126 20.604C9.86393 21.2043 10.5087 21.5546 11.1988 21.5546C11.889 21.5546 12.5337 21.2043 12.9864 20.604L12.9865 20.6038L14.4079 18.7086C14.4401 18.6709 14.4794 18.6514 14.5194 18.6514H14.9937C17.1072 18.6514 18.7374 18.0942 19.8389 16.9927C20.9404 15.8912 21.4976 14.261 21.4976 12.1475V9.30136C21.4976 8.85715 21.1303 8.48981 20.6861 8.48981C20.2419 8.48981 19.8745 8.85715 19.8745 9.30136V12.1475C19.8745 13.8321 19.4815 15.0465 18.6871 15.8409C17.8927 16.6353 16.6783 17.0284 14.9937 17.0284H14.5194C13.9661 17.0284 13.4431 17.2898 13.1111 17.7325L11.6885 19.6294C11.6884 19.6294 11.6884 19.6295 11.6883 19.6295C11.536 19.8296 11.3614 19.9172 11.1988 19.9172C11.0362 19.9172 10.8616 19.8296 10.7093 19.6295C10.7092 19.6295 10.7092 19.6294 10.7092 19.6294L9.28649 17.7325L9.28625 17.7322C8.97342 17.3184 8.39375 17.0284 7.87827 17.0284H7.40391C5.6466 17.0284 4.43824 16.8525 3.66318 16.1709C2.89159 15.4924 2.52309 14.2872 2.52309 12.1475V7.40391C2.52309 5.71935 2.91611 4.50497 3.71054 3.71054C4.50497 2.91611 5.71935 2.52309 7.40391 2.52309H13.0963C13.5405 2.52309 13.9078 2.15575 13.9078 1.71155C13.9078 1.26734 13.5405 0.9 13.0963 0.9H7.40391C5.29046 0.9 3.66022 1.45724 2.55873 2.55873C1.45724 3.66022 0.9 5.29046 0.9 7.40391V12.1475C0.9 14.8258 1.5145 16.463 2.65386 17.4253C3.78927 18.3843 5.42214 18.6514 7.40391 18.6514H7.8617C7.91072 18.6591 7.9565 18.6807 7.99353 18.7137L9.41111 20.6038Z" fill="#00092D" stroke="#00092D" stroke-width="0.2"/>
<path id="Vector_2" d="M11.2026 11.1988C10.6713 11.1988 10.2539 10.7719 10.2539 10.2501C10.2539 9.72829 10.6808 9.30136 11.2026 9.30136C11.7244 9.30136 12.1513 9.72829 12.1513 10.2501C12.1513 10.7719 11.7339 11.1988 11.2026 11.1988ZM14.9975 11.1988C14.4662 11.1988 14.0488 10.7719 14.0488 10.2501C14.0488 9.72829 14.4757 9.30136 14.9975 9.30136C15.5193 9.30136 15.9463 9.72829 15.9463 10.2501C15.9463 10.7719 15.5288 11.1988 14.9975 11.1988ZM7.40771 11.1988C6.87642 11.1988 6.45898 10.7719 6.45898 10.2501C6.45898 9.72829 6.88591 9.30136 7.40771 9.30136C7.92951 9.30136 8.35644 9.72829 8.35644 10.2501C8.35644 10.7719 7.939 11.1988 7.40771 11.1988ZM18.3181 7.16672C16.6198 7.16672 15.2347 5.78158 15.2347 4.08336C15.2347 2.38514 16.6198 1 18.3181 1C20.0163 1 21.4014 2.38514 21.4014 4.08336C21.4014 5.78158 20.0163 7.16672 18.3181 7.16672Z" fill="#00092D"/>
</g>
</svg>
