<svg width="23" height="24" viewBox="0 0 23 24" fill="none" xmlns="http://www.w3.org/2000/svg">
<g id="Group 1261157814">
<g id="Group 1261157263">
<path id="Vector" d="M11.9207 20.7779L11.9206 20.778C11.4155 21.3405 10.7678 21.6466 10.0983 21.6466H10.0973C9.43076 21.6466 8.78599 21.3406 8.28182 20.779C7.98939 20.4528 7.48893 20.4264 7.16373 20.7198C6.83851 21.0113 6.8121 21.5127 7.10452 21.8369C7.90946 22.7338 8.97208 23.2294 10.0962 23.2303H10.0963H10.0983C11.2253 23.2303 12.2899 22.7349 13.0978 21.838C13.3903 21.5137 13.3639 21.0124 13.0388 20.7199C12.7145 20.4273 12.2141 20.4539 11.9207 20.7779ZM19.3458 14.7484L19.346 14.7484V14.7441C19.346 13.1637 18.8429 12.3253 18.4021 11.5927C18.1799 11.2226 17.967 10.8674 17.8088 10.4007C17.6508 9.93435 17.5468 9.35435 17.5468 8.53629C17.5468 5.30963 14.5696 1.86406 10.1465 1.86406C5.72342 1.86406 2.74628 5.30963 2.74628 8.53629C2.74628 9.97734 2.42368 10.6825 2.04568 11.3321C2.04565 11.3322 2.04562 11.3322 2.04559 11.3323L1.89092 11.5927C1.89091 11.5927 1.89089 11.5928 1.89087 11.5928C1.44992 12.3257 0.947035 13.164 0.950013 14.8074H0.949834L0.9502 14.8117C1.03632 15.8058 1.36511 16.5754 1.8851 17.1689C2.40462 17.762 3.11209 18.1761 3.9505 18.4651C5.62539 19.0423 7.83488 19.1235 10.1465 19.1235C12.4581 19.1235 14.6675 19.0423 16.3427 18.4571C17.1814 18.1641 17.8891 17.744 18.409 17.142C18.9294 16.5395 19.2587 15.7582 19.3458 14.7484ZM4.32998 8.53629C4.32998 6.13609 6.71457 3.44776 10.1465 3.44776C13.5785 3.44776 15.9631 6.13609 15.9631 8.53629C15.9631 9.56932 16.1065 10.3266 16.3142 10.932C16.5218 11.537 16.7932 11.9884 17.0454 12.4078C17.248 12.7451 17.4265 13.0427 17.5554 13.3913C17.6838 13.7386 17.7636 14.1381 17.7652 14.6777C17.7245 15.1433 17.6158 15.5512 17.3828 15.9026C17.1496 16.2542 16.789 16.5535 16.2371 16.7964C15.1302 17.2835 13.2635 17.5398 10.1465 17.5398C7.012 17.5398 5.1462 17.2943 4.04441 16.8206C3.49509 16.5844 3.13831 16.2924 2.9082 15.948C2.67821 15.6037 2.57176 15.2025 2.53075 14.7419C2.53096 14.1698 2.61005 13.7542 2.73811 13.399C2.86664 13.0425 3.04505 12.7451 3.24766 12.4078C3.49988 11.9884 3.77122 11.537 3.97885 10.932C4.18659 10.3266 4.32998 9.56932 4.32998 8.53629Z" fill="#52AF29" stroke="#878790" stroke-width="0.1"/>
</g>
<path id="Vector_2" d="M17.3297 8.76087C19.4728 8.76087 21.2101 7.02354 21.2101 4.88043C21.2101 2.73733 19.4728 1 17.3297 1C15.1865 1 13.4492 2.73733 13.4492 4.88043C13.4492 7.02354 15.1865 8.76087 17.3297 8.76087Z" fill="#52AF29" stroke="#F7F8F9" stroke-width="2"/>
</g>
</svg>
