<svg width="17" height="16" viewBox="0 0 17 16" fill="none" xmlns="http://www.w3.org/2000/svg">
<g id="Group 1261157589">
<path id="Vector" d="M13.9783 0H2.89028C1.29891 0 0 1.29891 0 2.89028V12.2321C0 13.8234 1.29891 15.1223 2.89028 15.1223H13.9697C15.5611 15.1223 16.86 13.8234 16.86 12.2321V2.89028C16.8686 1.2903 15.5697 0 13.9783 0ZM2.89028 1.54836H13.9697C14.7095 1.54836 15.3116 2.1505 15.3116 2.89028V5.89238H1.54836V2.89028C1.55697 2.1505 2.15911 1.54836 2.89028 1.54836ZM13.9783 13.5654H2.89028C2.1505 13.5654 1.54836 12.9632 1.54836 12.2235V7.51816H15.3116V12.2235C15.3202 12.9718 14.7095 13.5654 13.9783 13.5654Z" fill="#00092D"/>
<path id="Vector_2" d="M6.63689 9.74219H3.16424C2.71727 9.74219 2.34766 10.1035 2.34766 10.5594C2.34766 11.0067 2.70867 11.3766 3.16424 11.3766H6.64548C7.09245 11.3766 7.46207 11.0153 7.46207 10.5594C7.45347 10.1035 7.09245 9.74219 6.63689 9.74219Z" fill="#00092D"/>
<path id="Vector_3" d="M10.5724 9.74219H9.23907C8.79176 9.74219 8.42188 10.1035 8.42188 10.5594C8.42188 11.0067 8.78316 11.3766 9.23907 11.3766H10.5724C11.0197 11.3766 11.3896 11.0153 11.3896 10.5594C11.381 10.1035 11.0197 9.74219 10.5724 9.74219Z" fill="#00092D"/>
</g>
</svg>
