<svg width="21" height="16" viewBox="0 0 21 16" fill="none" xmlns="http://www.w3.org/2000/svg">
<path id="Vector" d="M8.15401 1.43072C8.16788 1.43072 8.1739 1.45116 8.1739 1.50275L8.17481 1.5028C8.17481 1.5028 8.1739 3.45174 8.17535 3.48014C8.20909 4.42281 8.94543 5.20535 9.89065 5.30182L9.89659 5.30243C12.3132 5.52408 14.4467 6.4667 16.2379 8.10398C17.5261 9.28153 18.6243 10.7967 19.5048 12.6107C19.5332 12.6692 19.5242 12.7574 19.461 12.7574C19.4362 12.7574 19.403 12.7438 19.3605 12.7096C17.4788 11.1949 13.8675 10.0448 10.0992 9.96882L10.0991 9.97034C9.07195 9.9775 8.21183 10.7957 8.17526 11.8019C8.17372 11.8301 8.17451 13.6397 8.17472 14.2523C8.17472 14.2971 8.17068 14.3194 8.15524 14.3194C8.14068 14.3194 8.11587 14.2995 8.07475 14.2597C6.499 12.7366 1.65573 8.28185 1.65573 8.28185C1.54281 8.14082 1.4808 7.96268 1.4808 7.77695C1.4808 7.55937 1.56409 7.35691 1.71563 7.2052L1.7166 7.2047C1.7166 7.2047 6.55031 2.96664 8.08823 1.48038C8.11895 1.45076 8.14032 1.43072 8.15398 1.43072M8.15335 5.82208e-05C7.73706 0.000232979 7.36283 0.158011 7.04096 0.468935C5.59625 1.86517 1.08655 5.82498 0.74198 6.12732C0.710102 6.15417 0.679445 6.18235 0.650096 6.21178C0.230857 6.63149 0 7.18731 0 7.77697C0 8.27687 0.172012 8.76698 0.484384 9.15722C0.530179 9.21443 0.580406 9.26821 0.634631 9.31808C0.682955 9.3625 5.48263 13.778 7.02737 15.2711C7.35614 15.5888 7.73561 15.75 8.15518 15.75C8.83992 15.75 9.4365 15.2996 9.60592 14.6546C9.65024 14.4858 9.65536 14.3442 9.65536 14.2517V14.2035C9.65512 13.6627 9.65455 12.0535 9.65561 11.8403C9.67065 11.6065 9.87995 11.4025 10.1096 11.4009C10.1179 11.4009 10.1262 11.4008 10.1344 11.4006C13.8962 11.4893 16.9994 12.671 18.4127 13.8087C18.8021 14.1222 19.1977 14.1879 19.461 14.1879C19.9886 14.1879 20.4727 13.931 20.7558 13.5006C21.0456 13.0602 21.08 12.4864 20.8455 12.0032C19.8862 10.0269 18.6784 8.3653 17.2555 7.06466C16.2456 6.14159 15.1226 5.40358 13.9175 4.87118C12.7128 4.33896 11.4102 4.00508 10.046 3.87896C9.8388 3.85776 9.6695 3.66736 9.65582 3.44277C9.65506 3.27378 9.65524 2.18212 9.65561 1.50342C9.65563 1.46817 9.65431 1.43293 9.65166 1.39777C9.64502 1.28404 9.62748 1.17714 9.59839 1.07339C9.42131 0.44141 8.82732 0 8.15401 0L8.15335 5.82208e-05Z" fill="#52AF29"/>
</svg>
