<svg width="18" height="19" viewBox="0 0 18 19" fill="none" xmlns="http://www.w3.org/2000/svg">
<g id="Layer 13">
<path id="Vector" d="M17.2174 17.2174H10.1739C7.89075 17.2174 5.70109 16.3104 4.08665 14.696C2.4722 13.0815 1.56522 10.8919 1.56522 8.6087C1.56522 6.74065 2.3073 4.94911 3.6282 3.6282C4.94911 2.3073 6.74065 1.56522 8.6087 1.56522C10.4767 1.56522 12.2683 2.3073 13.5892 3.6282C14.9101 4.94911 15.6522 6.74065 15.6522 8.6087V12.1304C15.6522 12.4418 15.5285 12.7404 15.3083 12.9605C15.0882 13.1807 14.7896 13.3043 14.4783 13.3043C14.1669 13.3043 13.8683 13.1807 13.6482 12.9605C13.428 12.7404 13.3043 12.4418 13.3043 12.1304V4.69565C13.3043 4.48809 13.2219 4.28903 13.0751 4.14226C12.9284 3.9955 12.7293 3.91304 12.5217 3.91304C12.3142 3.91304 12.1151 3.9955 11.9684 4.14226C11.8216 4.28903 11.7391 4.48809 11.7391 4.69565C11.0618 4.18765 10.238 3.91304 9.3913 3.91304H8.6087C7.36333 3.91304 6.16897 4.40776 5.28837 5.28837C4.40776 6.16897 3.91304 7.36333 3.91304 8.6087C3.91304 9.85406 4.40776 11.0484 5.28837 11.929C6.16897 12.8096 7.36333 13.3043 8.6087 13.3043H9.3913C10.2434 13.2909 11.0677 12.9996 11.7391 12.4748C11.7617 12.8345 11.855 13.1862 12.0135 13.5099C12.1721 13.8336 12.3928 14.1228 12.6631 14.3612C12.9335 14.5996 13.2481 14.7824 13.5891 14.8991C13.9301 15.0159 14.2907 15.0643 14.6504 15.0417C15.0101 15.0191 15.3619 14.9259 15.6855 14.7673C16.0092 14.6088 16.2985 14.3881 16.5369 14.1177C16.7752 13.8474 16.958 13.5327 17.0748 13.1918C17.1915 12.8508 17.24 12.4901 17.2174 12.1304V8.6087C17.2174 6.32553 16.3104 4.13587 14.696 2.52143C13.0815 0.906985 10.8919 0 8.6087 0C6.32553 0 4.13587 0.906985 2.52143 2.52143C0.906985 4.13587 0 6.32553 0 8.6087C0 11.307 1.07189 13.8948 2.97987 15.8027C3.92461 16.7475 5.04617 17.4969 6.28052 18.0082C7.51488 18.5195 8.83786 18.7826 10.1739 18.7826H17.2174C17.425 18.7826 17.624 18.7002 17.7708 18.5534C17.9175 18.4066 18 18.2076 18 18C18 17.7924 17.9175 17.5934 17.7708 17.4466C17.624 17.2998 17.425 17.2174 17.2174 17.2174ZM9.3913 11.7391H8.6087C7.77845 11.7391 6.98221 11.4093 6.39514 10.8222C5.80807 10.2352 5.47826 9.43894 5.47826 8.6087C5.47826 7.77845 5.80807 6.98221 6.39514 6.39514C6.98221 5.80807 7.77845 5.47826 8.6087 5.47826H9.3913C10.014 5.47826 10.6112 5.72562 11.0515 6.16592C11.4918 6.60623 11.7391 7.2034 11.7391 7.82609V9.3913C11.7391 10.014 11.4918 10.6112 11.0515 11.0515C10.6112 11.4918 10.014 11.7391 9.3913 11.7391Z" fill="#00092D"/>
</g>
</svg>
