<svg width="20" height="24" viewBox="0 0 20 24" fill="none" xmlns="http://www.w3.org/2000/svg">
<g id="Group 1261157582">
<path id="Vector" d="M10.6005 20.0963C10.5799 19.9318 10.4874 19.7674 10.3332 19.6851C10.066 19.5412 9.69592 19.5515 9.39783 19.5618C8.91473 19.5721 8.43163 19.5823 7.94852 19.5823H4.25842C4.13507 19.5823 2.03819 19.5618 2.03819 19.5823C2.326 15.3372 6.00582 12.1302 10.251 12.418C11.1864 12.4797 12.0909 12.7366 12.9338 13.1375C13.3552 13.3431 13.7663 13.5898 14.1467 13.857C14.4961 14.1037 14.7839 14.4429 15.1848 14.6279C15.6268 14.8335 16.2744 14.6279 15.9249 14.0523C15.5754 13.4664 14.8662 13.0347 14.3111 12.6647C14.0028 12.4591 13.6841 12.2741 13.3552 12.1199C13.1907 12.048 12.4815 11.6368 12.317 11.719C15.1026 10.3006 16.2127 6.88799 14.7942 4.10243C13.3757 1.31687 9.96317 0.196473 7.17761 1.61495C4.39205 3.03343 3.28193 6.446 4.70041 9.23156C5.24519 10.3006 6.10861 11.164 7.17761 11.7088C3.49779 12.8394 0.989753 16.252 1.00003 20.0963C1.00003 20.3841 1.22617 20.6102 1.51397 20.6102H7.47569C8.298 20.6102 9.13059 20.6102 9.95289 20.6102C10.0968 20.6102 10.2613 20.6102 10.3846 20.528C10.5491 20.4252 10.6107 20.2607 10.6005 20.0963ZM5.11156 6.73381C5.11156 4.17438 7.17761 2.10834 9.73704 2.10834C12.2965 2.10834 14.3625 4.17438 14.3625 6.73381C14.3625 9.29324 12.2965 11.3593 9.73704 11.3593C7.18789 11.3593 5.12184 9.28296 5.11156 6.73381Z" fill="#00092D" stroke="#00092D" stroke-width="0.7" stroke-miterlimit="10"/>
<path id="Vector_2" d="M15.7579 16.2383C13.7227 16.2383 12.0781 17.8829 12.0781 19.9181C12.0781 21.9533 13.7227 23.5979 15.7579 23.5979C17.7932 23.5979 19.4378 21.9533 19.4378 19.9181C19.4378 17.8829 17.7932 16.2383 15.7579 16.2383ZM12.8182 19.9181C12.8182 18.294 14.1339 16.9784 15.7579 16.9784C16.4363 16.9784 17.0634 17.2148 17.5567 17.5951L13.4247 21.7272C13.0341 21.2235 12.8079 20.6068 12.8079 19.9284L12.8182 19.9181ZM15.7579 22.8578C15.0795 22.8578 14.4525 22.6214 13.9592 22.2411L18.0912 18.109C18.4818 18.6127 18.708 19.2294 18.708 19.9078C18.708 21.5319 17.3923 22.8476 15.7682 22.8476L15.7579 22.8578Z" fill="#00092D" stroke="#00092D" stroke-width="0.7" stroke-miterlimit="10"/>
</g>
</svg>
