<svg width="58" height="58" viewBox="0 0 58 58" fill="none" xmlns="http://www.w3.org/2000/svg">
<g id="Group 1000004210">
<circle id="Ellipse 225" cx="29" cy="29" r="28" fill="white" stroke="#52AF29" stroke-width="2"/>
<g id="Group 1000004212">
<g id="Group 1000004211">
<path id="Vector" fill-rule="evenodd" clip-rule="evenodd" d="M25.4582 27.0982H23.672C23.17 26.8573 22.7086 26.7168 22.1264 26.7168C21.0025 26.7168 19.7983 27.4191 19.7983 28.7037C19.7983 28.7439 19.7983 28.7843 19.8182 28.8238C19.8383 29.4065 20.1795 29.888 20.6612 30.2091C20.621 30.2493 20.6009 30.2692 20.561 30.2893C20.4605 30.3699 20.3602 30.4701 20.2599 30.5702C20.2398 30.5702 20.2398 30.5903 20.2197 30.6104C20.0391 30.7712 19.8785 31.0121 19.8785 31.2326C19.8785 31.5537 20.0793 31.7746 20.3401 31.9354C20.4862 32.0371 20.6493 32.1117 20.8218 32.1558C20.7416 32.196 20.6813 32.236 20.6009 32.276C20.415 32.3779 20.2402 32.4989 20.0793 32.6371C19.8649 32.8099 19.6932 33.0299 19.5775 33.2798C19.5373 33.42 19.4971 33.5804 19.4971 33.7412C19.4971 33.8814 19.5373 34.0221 19.6177 34.1626C19.8584 34.6445 20.5007 35.0659 21.5845 35.0659C22.6883 35.0659 23.672 34.7048 24.3545 34.1626C24.6955 33.9015 24.9566 33.6005 25.137 33.2798C25.2714 33.0336 25.3406 32.7571 25.3378 32.4767C25.3378 32.2759 25.2976 32.0951 25.2373 31.9351C24.9765 31.3726 24.2739 31.0515 23.2703 31.0921L21.7852 31.1522C21.0425 31.1924 20.9221 30.8712 21.0226 30.6102C21.0628 30.5501 21.0827 30.49 21.1228 30.4498C21.4038 30.53 21.6849 30.57 21.9659 30.57C23.0296 30.57 24.1133 29.9679 24.2538 28.8236V28.5831C24.2538 28.3022 24.2136 28.0612 24.1133 27.8205L25.458 27.8406L25.4582 27.0982ZM21.6048 32.236L22.7086 32.1759C22.7888 32.1759 22.9293 32.1558 23.11 32.1558C23.2906 32.1558 23.4914 32.1759 23.6921 32.2159C24.0734 32.296 24.3744 32.4968 24.3744 32.9584C24.3744 33.079 24.3545 33.1793 24.3344 33.28C24.1538 33.7816 23.5716 34.0625 22.9695 34.1628C22.7689 34.203 22.5682 34.2229 22.3674 34.2229C22.2068 34.2229 21.9862 34.2028 21.7854 34.1628C21.5847 34.1427 21.404 34.0826 21.2434 34.0225C20.8622 33.8617 20.6213 33.6212 20.6213 33.28C20.6213 32.8581 21.1834 32.4369 21.6048 32.236ZM23.0097 28.8238C22.9896 29.446 22.7689 30.0682 22.1468 30.0682C21.7653 30.0682 21.1834 29.687 21.0829 28.8238C21.063 28.7236 21.063 28.6233 21.063 28.523C21.063 27.8808 21.3037 27.2387 21.9261 27.2387C22.6687 27.2387 23.0099 28.0013 23.0099 28.7439L23.0097 28.8238Z" fill="black"/>
<path id="Vector_2" fill-rule="evenodd" clip-rule="evenodd" d="M9 32.256V31.7946L9.12059 31.7745C9.74276 31.7343 10.1441 31.4534 10.5255 30.9114C10.7062 30.6504 10.8667 30.3292 11.0472 29.9279C11.248 29.5266 11.4286 29.0849 11.6495 28.5632L14.399 22H14.7804L18.0318 29.7671C18.1321 30.0286 18.2323 30.2691 18.3328 30.5101C18.4532 30.7305 18.5537 30.9514 18.6942 31.1122C18.9751 31.4733 19.3364 31.7142 19.9385 31.7745L20.0589 31.7946V32.256H15.2822V31.7946L15.4028 31.7745C16.3861 31.6738 16.6271 31.3728 16.6673 31.0517C16.6872 30.8712 16.6271 30.6504 16.5469 30.4295C16.4654 30.1908 16.3717 29.9565 16.266 29.7276L14.1181 24.5291L12.5526 28.2621C12.2516 28.9846 12.0106 29.5668 11.85 30.0286C11.6895 30.4699 11.6294 30.791 11.6495 31.0316C11.7096 31.4333 12.0508 31.6142 13.1748 31.7745L13.275 31.7946V32.256H9ZM41.4339 30.7712C41.4339 31.6741 41.4539 31.6944 42.1362 31.8147L42.2367 31.8348V32.2361H39.4267V31.8348L39.5271 31.8147C40.2498 31.6946 40.2498 31.6343 40.2699 30.7511V28.5431V28.242C40.2498 28.1619 40.2498 28.1016 40.2096 28.0413C40.1694 27.9209 40.049 27.8005 39.748 27.5797L39.7078 27.5397V27.2786L41.2132 26.7168L41.4939 26.7969L41.4138 27.4794C41.9156 27.0779 42.4973 26.7168 43.18 26.7168C43.7821 26.7168 44.3839 27.0178 44.6651 27.5797C45.1669 27.1382 45.7891 26.7168 46.5316 26.7168C47.4546 26.7168 47.8963 27.1985 48.077 27.7603C48.1572 28.0413 48.1773 28.3423 48.1974 28.6034C48.1974 28.8439 48.1771 29.0849 48.1771 29.2456V30.7712C48.1771 31.6741 48.1974 31.6944 48.8798 31.8147L49 31.8348V32.2361H46.1701V31.8348L46.2907 31.8147C46.9928 31.6946 47.0131 31.6343 47.0131 30.7511V29.5266C47.0131 29.4263 47.0332 29.2256 47.0332 29.0246C47.0131 28.8037 46.993 28.5833 46.9327 28.3622C46.8123 27.9408 46.5111 27.5795 45.8288 27.5795C45.4074 27.5795 45.1265 27.7601 44.8054 28.0813V30.7709C44.8054 31.6738 44.8255 31.6941 45.5077 31.8145L45.6283 31.8346V32.2359H42.7984V31.8346L42.8986 31.8145C43.6211 31.6944 43.6412 31.6341 43.6412 30.7508V29.5264C43.6412 29.3656 43.6613 29.1653 43.6412 28.9442C43.6412 28.7233 43.601 28.5029 43.5409 28.3019C43.4207 27.9004 43.1396 27.5793 42.4772 27.5793C42.0357 27.5793 41.7343 27.78 41.4334 28.0811V30.7712H41.4339ZM27.5252 27.7603C27.8664 27.2387 28.4084 26.7168 29.0505 26.7168C29.4319 26.7168 29.7729 26.9776 29.7729 27.3791C29.7729 27.7804 29.3716 28.1016 29.0907 28.242L29.0105 28.2822L28.9502 28.2219C28.8499 28.1418 28.7293 28.0413 28.6089 27.9812C28.4886 27.9008 28.3883 27.8608 28.2878 27.8608C27.8865 27.9008 27.6857 28.242 27.5855 28.6635C27.5453 28.8642 27.5252 29.0648 27.5051 29.2456V30.7712C27.5051 31.2526 27.5252 31.4534 27.6455 31.5738C27.746 31.6944 27.9868 31.7346 28.5489 31.8147H28.6692V32.2361H25.4981V31.8348L25.6185 31.8147C26.321 31.6946 26.3411 31.6343 26.3411 30.7511V28.5431V28.242C26.3411 28.1619 26.321 28.1016 26.3009 28.0413C26.2408 27.9209 26.1203 27.8005 25.8393 27.5797L25.779 27.5397V27.2786L27.3045 26.7168L27.5654 26.7969L27.5252 27.7603ZM29.9737 32.2359V31.8145H30.0943C30.8768 31.6944 30.8768 31.6341 30.8971 30.7508V28.5431C30.8971 28.2822 30.8768 28.1619 30.8167 28.0413C30.7564 27.9209 30.5961 27.8005 30.2347 27.5998L30.1744 27.5596V27.2585L31.7801 26.7168L32.041 26.7969V30.7709C32.041 31.6738 32.0611 31.6941 32.8438 31.8145H32.9642V32.2359H29.9737ZM32.1412 24.6495C32.1416 24.7445 32.1232 24.8386 32.087 24.9265C32.0508 25.0143 31.9976 25.0941 31.9304 25.1613C31.8632 25.2285 31.7834 25.2816 31.6956 25.3178C31.6077 25.354 31.5136 25.3723 31.4186 25.3719C31.3236 25.3723 31.2295 25.3539 31.1416 25.3177C31.0538 25.2816 30.974 25.2284 30.9068 25.1612C30.8397 25.094 30.7865 25.0142 30.7503 24.9264C30.7141 24.8386 30.6957 24.7445 30.6961 24.6495C30.6957 24.5545 30.7141 24.4604 30.7503 24.3725C30.7865 24.2847 30.8397 24.2049 30.9068 24.1377C30.974 24.0706 31.0538 24.0174 31.1416 23.9812C31.2295 23.945 31.3236 23.9266 31.4186 23.927C31.5136 23.9266 31.6077 23.945 31.6956 23.9812C31.7834 24.0173 31.8632 24.0705 31.9304 24.1377C31.9976 24.2048 32.0508 24.2846 32.087 24.3725C32.1232 24.4603 32.1416 24.5545 32.1412 24.6495ZM38.2629 30.8312C38.2426 30.9315 38.2426 31.0318 38.2426 31.1323C38.2426 31.2325 38.2426 31.3127 38.2629 31.3728C38.2828 31.4735 38.3431 31.5537 38.5836 31.5537L39.2263 31.4936L39.3266 31.915L37.0585 32.457L37.0789 31.6343C36.4967 32.0356 35.8544 32.3567 35.1121 32.3567C34.4095 32.3567 34.0283 32.0356 33.8476 31.6142C33.7672 31.4333 33.7272 31.2124 33.7071 31.0316C33.687 30.831 33.687 30.6707 33.687 30.5501V28.5031C33.687 28.3023 33.7071 28.1215 33.687 27.9812C33.687 27.8206 33.6667 27.7204 33.6267 27.64C33.5868 27.5198 33.4461 27.4191 32.9644 27.4191H32.8239V26.9977L34.8508 26.817V30.3292C34.8508 30.5101 34.891 30.7104 34.9515 30.8712C35.0719 31.2124 35.3126 31.5135 35.9348 31.5135C36.3564 31.5135 36.7778 31.3527 37.0989 31.0722V28.6235C37.0989 27.64 37.0788 27.4191 36.1556 27.4191H36.0152V26.9977L38.3232 26.817L38.2629 30.8312Z" fill="black"/>
<path id="Vector_3" fill-rule="evenodd" clip-rule="evenodd" d="M20.4408 24.5293C19.2364 25.6732 16.0052 27.5799 14.5802 29.1257C13.9178 29.8481 13.8575 30.3095 13.2355 31.0724C12.7737 31.674 11.7301 31.1727 12.0312 30.4703C12.4126 29.5871 12.8541 28.9448 13.5565 28.1819C15.0418 26.5363 16.4266 26.5564 18.3132 25.5128L20.4408 24.5293Z" fill="#6CB35D"/>
</g>
</g>
</g>
</svg>
