<svg width="22" height="22" viewBox="0 0 22 22" fill="none" xmlns="http://www.w3.org/2000/svg">
<g id="Group 1261157723">
<path id="Vector" d="M11.0013 0C8.82542 0 6.69844 0.645213 4.88929 1.85405C3.08015 3.06288 1.67009 4.78104 0.837426 6.79126C0.00476667 8.80148 -0.213095 11.0135 0.211391 13.1475C0.635877 15.2815 1.68365 17.2418 3.2222 18.7803C4.76075 20.3189 6.72099 21.3667 8.85503 21.7911C10.9891 22.2156 13.2011 21.9978 15.2113 21.1651C17.2215 20.3324 18.9397 18.9224 20.1485 17.1132C21.3573 15.3041 22.0025 13.1771 22.0025 11.0013C22.0025 8.08355 20.8435 5.28533 18.7803 3.2222C16.7172 1.15906 13.919 0 11.0013 0ZM11.0013 19.8023C9.26059 19.8023 7.55901 19.2861 6.11169 18.319C4.66437 17.352 3.53632 15.9774 2.87019 14.3693C2.20407 12.7611 2.02978 10.9915 2.36937 9.28427C2.70896 7.57704 3.54717 6.00885 4.77801 4.77801C6.00886 3.54717 7.57705 2.70895 9.28428 2.36936C10.9915 2.02977 12.7611 2.20406 14.3693 2.87019C15.9774 3.53632 17.352 4.66436 18.319 6.11168C19.2861 7.559 19.8023 9.26059 19.8023 11.0013C19.8023 13.3354 18.875 15.574 17.2245 17.2245C15.574 18.875 13.3354 19.8023 11.0013 19.8023Z" fill="#00092D"/>
<path id="Vector_2" d="M11.0006 4.5C9.71493 4.5 8.4581 4.88126 7.38908 5.59555C6.32005 6.30985 5.48685 7.32511 4.99483 8.51295C4.50282 9.70078 4.37408 11.0078 4.62491 12.2688C4.87574 13.5298 5.49486 14.6881 6.40399 15.5973C7.31312 16.5064 8.47143 17.1255 9.73242 17.3764C10.9934 17.6272 12.3005 17.4985 13.4883 17.0064C14.6762 16.5144 15.6914 15.6812 16.4057 14.6122C17.12 13.5432 17.5013 12.2863 17.5013 11.0006C17.5013 9.27656 16.8164 7.6231 15.5973 6.40399C14.3782 5.18489 12.7247 4.5 11.0006 4.5Z" fill="#52AF29" stroke="#52AF29" stroke-width="2"/>
</g>
</svg>
