<svg width="49" height="62" viewBox="0 0 49 62" fill="none" xmlns="http://www.w3.org/2000/svg">
<path id="Vector" d="M48.2593 56.8856C48.2593 56.7477 48.2593 56.6174 48.2593 56.4871C48.2668 53.3834 48.2668 50.2796 48.2743 47.1759C48.2743 46.126 48.2593 45.0224 47.7416 44.1181C46.9913 42.8153 45.4231 42.3018 43.9976 41.9033C40.081 40.7921 36.1644 39.6886 32.2478 38.5773C32.2478 29.3964 32.2553 20.2231 32.2553 11.0421C32.2553 10.7432 32.2553 10.429 32.1202 10.1531C31.9552 9.81594 31.625 9.5937 31.3024 9.40211C27.4233 6.99574 23.5442 4.58938 19.6652 2.18302C18.5172 1.4703 17.2942 0.734602 15.9511 0.772919C14.6006 0.811237 13.4526 1.56993 12.3797 2.32096C11.1567 3.17162 9.91118 3.99162 8.68068 4.82695C6.18967 6.5206 3.69115 8.20659 1.20014 9.90024C0.907519 10.0995 0.607396 10.3064 0.419819 10.613C0.187225 10.9961 0.187225 11.4713 0.187225 11.9234C0.187225 19.1195 0.187225 26.3233 0.179722 33.5194C0.179722 40.7155 0.179721 47.9192 0.172218 55.1153C0.172218 56.9163 0.172218 58.7172 0.172218 60.5105C0.172218 60.7251 0.0521703 61.5374 0.187225 61.683C0.344789 61.844 1.20014 61.7137 1.43273 61.706C2.31809 61.706 3.19595 61.6983 4.08131 61.6983C7.61525 61.683 11.1417 61.6677 14.6756 61.66C21.736 61.6294 28.7964 61.6064 35.8567 61.5757C38.2577 61.5681 40.6587 61.5451 43.0597 61.5451C44.6053 61.5374 46.346 61.4454 47.3589 60.2576C48.1317 59.3533 48.2443 58.0888 48.2593 56.8856ZM14.5631 41.6964L1.78537 50.3869V45.8884L14.5631 37.1979V41.6964ZM14.5631 33.5194L1.78537 42.2099V37.7114L14.5631 29.0209V33.5194ZM14.5631 25.3347L1.78537 34.0252V29.5267L14.5631 20.8362V25.3347ZM14.5631 17.2573L1.78537 25.9478V21.4492L14.5631 12.7588V17.2573ZM14.5631 9.08023L1.78537 17.7707V13.2722L14.5631 4.58172V9.08023ZM29.0515 58.1884H17.7744L17.7444 5.86153L29.0515 12.6438V58.1884ZM45.0705 58.518L33.8985 54.9927V50.4942L45.0705 54.0194V58.518ZM45.0705 51.1609L33.8985 47.6357V43.1372L45.0705 46.6624V51.1609Z" fill="#52AF29"/>
</svg>
