<svg width="20" height="20" viewBox="0 0 20 20" fill="none" xmlns="http://www.w3.org/2000/svg">
<path id="Shape" fill-rule="evenodd" clip-rule="evenodd" d="M10 0C15.5228 0 20 4.47715 20 10C20 15.5228 15.5228 20 10 20C4.47715 20 0 15.5228 0 10C0 4.47715 4.47715 0 10 0ZM10.001 1.8192C5.48232 1.8192 1.8192 5.48232 1.8192 10.001C1.8192 14.5197 5.48232 18.1828 10.001 18.1828C14.5197 18.1828 18.1828 14.5197 18.1828 10.001C18.1828 5.48232 14.5197 1.8192 10.001 1.8192ZM8.56007 9.84572L6.63159 7.91724C6.27657 7.56222 6.27657 6.98662 6.63159 6.63159C6.98662 6.27657 7.56222 6.27657 7.91724 6.63159L9.84572 8.56007L11.7742 6.63159C12.1292 6.27657 12.7048 6.27657 13.0598 6.63159C13.4149 6.98662 13.4149 7.56222 13.0598 7.91724L11.1314 9.84572L13.0598 11.7742C13.4149 12.1292 13.4149 12.7048 13.0598 13.0598C12.7048 13.4149 12.1292 13.4149 11.7742 13.0598L9.84572 11.1314L7.91724 13.0598C7.56222 13.4149 6.98662 13.4149 6.63159 13.0598C6.27657 12.7048 6.27657 12.1292 6.63159 11.7742L8.56007 9.84572Z" fill="#52AF29"/>
</svg>
