<svg width="24" height="21" viewBox="0 0 24 21" fill="none" xmlns="http://www.w3.org/2000/svg">
<g id="Group 1261157839">
<path id="Vector" opacity="0.31" d="M22.4948 13.6587C21.5868 12.3528 20.36 11.3708 18.9339 10.805C19.5628 10.364 20.0919 9.77588 20.4743 9.09C20.917 8.29612 21.151 7.38886 21.151 6.46635C21.151 3.5906 18.9174 1.25098 16.1719 1.25098C15.782 1.25098 15.4648 1.56716 15.4648 1.95582C15.4648 2.34495 15.782 2.66153 16.1719 2.66153C18.1367 2.66153 19.7351 4.36836 19.7351 6.46635C19.7351 8.5648 18.1367 10.272 16.1719 10.272C15.782 10.272 15.4648 10.5884 15.4648 10.9772V10.9811C15.4648 11.3702 15.782 11.6868 16.1719 11.6868C19.7064 11.6868 22.582 14.7428 22.582 18.4991C22.582 18.8887 22.8999 19.2057 23.2907 19.2057C23.6806 19.2057 23.9978 18.8887 23.9978 18.4991C23.9978 16.7467 23.4781 15.0729 22.4948 13.6587Z" fill="#00092D"/>
<path id="Vector_2" d="M15.1386 12.4187C14.3973 11.8943 13.5911 11.4801 12.7382 11.1851C14.5394 10.0918 15.645 8.14588 15.645 6.03085C15.645 2.70544 12.9366 0 9.60742 0C6.2773 0 3.56808 2.70544 3.56808 6.03085C3.56808 7.16308 3.88553 8.26738 4.48615 9.22445C4.99412 10.0339 5.68489 10.7105 6.49977 11.2005C5.63246 11.4963 4.81305 11.915 4.06047 12.4474C3.24101 13.0272 2.51972 13.728 1.91668 14.5305C0.662781 16.1991 0 18.1843 0 20.2715C0 20.6604 0.316764 20.9768 0.706141 20.9768C1.09598 20.9768 1.41315 20.6604 1.41315 20.2715C1.41315 18.0948 2.26293 16.044 3.80592 14.4968C5.34526 12.9533 7.3827 12.1023 9.54342 12.1002C9.61476 12.1065 9.6874 12.1015 9.75814 12.0857L9.81417 12.0732C11.9165 12.1157 13.8925 12.9628 15.3943 14.4692C16.9366 16.0162 17.786 18.0666 17.786 20.2427C17.786 20.6316 18.1031 20.948 18.493 20.948C18.8823 20.948 19.1991 20.6316 19.1991 20.2427C19.1991 18.1555 18.5363 16.1704 17.2825 14.5017C16.6793 13.6993 15.9581 12.9984 15.1386 12.4187ZM9.60742 1.41189C12.1573 1.41189 14.2319 3.48395 14.2319 6.03085C14.2319 8.57799 12.1573 10.6503 9.60742 10.6503C7.05698 10.6503 4.98209 8.57799 4.98209 6.03085C4.98206 3.48395 7.05698 1.41189 9.60742 1.41189Z" fill="#00092D"/>
</g>
</svg>
