<svg width="21" height="27" viewBox="0 0 21 27" fill="none" xmlns="http://www.w3.org/2000/svg">
<g id="Group 1261157841">
<g id="Group 1261157840">
<path id="Vector" d="M6.55699 25.7768L6.6277 25.7061L6.55699 25.7768C6.64912 25.869 6.77408 25.9207 6.90438 25.9207H16.2952C16.4255 25.9207 16.5505 25.869 16.6426 25.7768C16.7348 25.6847 16.7865 25.5597 16.7865 25.4294V24.3143C16.7865 23.3516 16.0573 22.5904 15.1214 22.5904H8.07824C7.1301 22.5904 6.4131 23.3074 6.4131 24.2556V25.4294C6.4131 25.5597 6.46486 25.6847 6.55699 25.7768ZM11.5998 18.095C16.1861 18.095 19.9168 14.3643 19.9168 9.77803C19.9168 5.19172 16.1861 1.46104 11.5998 1.46104C7.01349 1.46104 3.28281 5.19172 3.28281 9.77803C3.28281 14.3643 7.01349 18.095 11.5998 18.095ZM11.5998 2.44361C15.6437 2.44361 18.9342 5.73415 18.9342 9.77803C18.9342 13.8219 15.6437 17.1125 11.5998 17.1125C7.55593 17.1125 4.26538 13.8219 4.26538 9.77803C4.26538 5.73414 7.55515 2.44361 11.5998 2.44361ZM15.8039 24.3143V24.9382H7.39567V24.2556C7.39567 24.049 7.46733 23.8796 7.58481 23.7622C7.70229 23.6447 7.87165 23.573 8.07824 23.573H15.1214C15.5055 23.573 15.8039 23.8829 15.8039 24.3143Z" fill="#181818" stroke="#00092D" stroke-width="0.2"/>
<path id="Vector_2" d="M0.900048 9.77461C0.900087 12.6222 2.00934 15.3013 4.02362 17.3156C5.91138 19.209 8.44489 20.3167 11.1142 20.4186V21.5897C11.1142 21.72 11.1659 21.845 11.2581 21.9371C11.3502 22.0292 11.4752 22.081 11.6054 22.081C11.7357 22.081 11.8607 22.0292 11.9528 21.9371C12.045 21.845 12.0967 21.72 12.0967 21.5897V20.4147C14.5692 20.3018 16.924 19.3252 18.7507 17.655L19.6062 18.5098L19.6062 18.5098L19.6074 18.511C19.7001 18.6005 19.8242 18.65 19.953 18.6489C20.0818 18.6478 20.205 18.5961 20.2961 18.505C20.3872 18.4139 20.4389 18.2907 20.44 18.1619C20.4411 18.0331 20.3916 17.909 20.3021 17.8163L20.3021 17.8163L20.3009 17.8151L19.1067 16.6209L19.1067 16.6209C19.0145 16.5288 18.8896 16.477 18.7593 16.477C18.629 16.477 18.5041 16.5288 18.412 16.6209C16.5823 18.4498 14.1512 19.4566 11.5648 19.4566C8.97827 19.4566 6.54721 18.4498 4.71832 16.6209C2.88943 14.792 1.88262 12.3609 1.88262 9.77446C1.88262 7.18797 2.88943 4.75692 4.71832 2.92803L4.71833 2.92802C4.81043 2.83589 4.86217 2.71095 4.86217 2.58068C4.86217 2.45041 4.81043 2.32547 4.71833 2.23334L4.71832 2.23333L3.52412 1.03913L3.52413 1.03912L3.52288 1.03791C3.43022 0.948418 3.30612 0.898899 3.17731 0.900019C3.04849 0.901138 2.92527 0.952806 2.83419 1.04389C2.7431 1.13498 2.69143 1.2582 2.69031 1.38702C2.68919 1.51583 2.73871 1.63993 2.8282 1.73259L2.82819 1.7326L2.82939 1.7338L3.68406 2.58919C1.88681 4.54842 0.892044 7.11357 0.900048 9.77461ZM0.900048 9.77461C0.900048 9.77456 0.900048 9.77451 0.900048 9.77446H1.00005L0.900048 9.77476C0.900048 9.77471 0.900048 9.77466 0.900048 9.77461Z" fill="#181818" stroke="#00092D" stroke-width="0.2"/>
</g>
</g>
</svg>
