<svg width="85" height="87" viewBox="0 0 85 87" fill="none" xmlns="http://www.w3.org/2000/svg">
<path id="Rectangle 40" d="M1.29833 79.3444C0.913719 78.4169 0.645176 77.4291 0.510826 76.3992L0.993372 76.3362C0.930965 75.8578 0.898744 75.3697 0.898744 74.8738V73.3165H0.412109V70.2021H0.898744V67.0876H0.412109V63.9731H0.898744V60.8587H0.412109V57.7442H0.898744V54.6298H0.412109V51.5153H0.898744V48.4008H0.412109V45.2864H0.898744V42.1719H0.412109V39.0574H0.898744V35.943H0.412109V32.8285H0.898744V29.7141H0.412109V26.5996H0.898744V23.4851H0.412109V20.3707H0.898744V17.2562H0.412109V14.1417H0.898744V12.5845C0.898744 12.0886 0.930965 11.6005 0.993372 11.122L0.510826 11.0591C0.645176 10.0291 0.913719 9.04134 1.29834 8.11384L1.74785 8.30025C2.12508 7.39058 2.61894 6.54123 3.21091 5.7709L2.82505 5.47438C3.44679 4.6653 4.17213 3.93996 4.98121 3.31821L5.27773 3.70407C6.04807 3.1121 6.89742 2.61824 7.80708 2.24102L7.62067 1.7915C8.54817 1.40688 9.53596 1.13834 10.5659 1.00399L10.6289 1.48654C11.1073 1.42413 11.5954 1.39191 12.0913 1.39191H13.7922V0.905273H17.194V1.39191H20.5957V0.905273H23.9975V1.39191H27.3992V0.905273H30.801V1.39191H34.2028V0.905273H37.6045V1.39191H41.0063V0.905273H44.408V1.39191H47.8098V0.905273H51.2115V1.39191H54.6133V0.905273H58.015V1.39191H61.4168V0.905273H64.8185V1.39191H68.2203V0.905273H71.622V1.39191H73.3229C73.8188 1.39191 74.307 1.42413 74.7854 1.48654L74.8483 1.00399C75.8783 1.13834 76.8661 1.40688 77.7936 1.7915L77.6072 2.24102C78.5168 2.61824 79.3662 3.1121 80.1365 3.70407L80.4331 3.31821C81.2421 3.93996 81.9675 4.66529 82.5892 5.47438L82.2034 5.77089C82.7953 6.54123 83.2892 7.39058 83.6664 8.30025L84.1159 8.11384C84.5005 9.04133 84.7691 10.0291 84.9034 11.0591L84.4209 11.122C84.4833 11.6005 84.5155 12.0886 84.5155 12.5845V14.1417H85.0022V17.2562H84.5155V20.3707H85.0022V23.4851H84.5155V26.5996H85.0022V29.714H84.5155V32.8285H85.0022V35.943H84.5155V39.0574H85.0022V42.1719H84.5155V45.2864H85.0022V48.4008H84.5155V51.5153H85.0022V54.6298H84.5155V57.7442H85.0022V60.8587H84.5155V63.9731H85.0022V67.0876H84.5155V70.2021H85.0022V73.3165H84.5155V74.8738C84.5155 75.3697 84.4833 75.8578 84.4209 76.3362L84.9034 76.3992C84.7691 77.4291 84.5005 78.4169 84.1159 79.3444L83.6664 79.158C83.2892 80.0677 82.7953 80.917 82.2034 81.6874L82.5892 81.9839C81.9675 82.793 81.2421 83.5183 80.4331 84.1401L80.1365 83.7542C79.3662 84.3462 78.5168 84.84 77.6072 85.2173L77.7936 85.6668C76.8661 86.0514 75.8783 86.3199 74.8483 86.4543L74.7854 85.9717C74.307 86.0341 73.8188 86.0664 73.3229 86.0664H71.622V86.553H68.2203V86.0664H64.8185V86.553H61.4168V86.0664H58.015V86.553H54.6133V86.0664H51.2115V86.553H47.8098V86.0664H44.408V86.553H41.0063V86.0664H37.6045V86.553H34.2027V86.0664H30.801V86.553H27.3992V86.0664H23.9975V86.553H20.5957V86.0664H17.194V86.553H13.7922V86.0664H12.0913C11.5954 86.0664 11.1073 86.0341 10.6289 85.9717L10.5659 86.4543C9.53596 86.3199 8.54817 86.0514 7.62067 85.6668L7.80708 85.2173C6.89741 84.84 6.04806 84.3462 5.27773 83.7542L4.98121 84.1401C4.17213 83.5183 3.44679 82.793 2.82504 81.9839L3.21091 81.6874C2.61893 80.917 2.12508 80.0677 1.74785 79.158L1.29833 79.3444Z" fill="#D9DDE7" stroke="#00092D" stroke-width="0.97327" stroke-dasharray="3.24 3.24"/>
</svg>
