<svg width="43" height="35" viewBox="0 0 43 35" fill="none" xmlns="http://www.w3.org/2000/svg">
<g id="thrive_agric logo" clip-path="url(#clip0_128_10889)">
<path id="Vector" d="M7.39158 28.4629C6.19212 26.2124 5.56311 23.7124 5.55762 21.1739C5.55762 12.5118 12.7322 5.48675 21.5796 5.48675C26.0572 5.48675 30.1571 7.22977 33.2318 10.3989L31.8831 11.6138C29.1857 8.81455 25.5174 7.28278 21.5796 7.28278C13.7573 7.28278 7.39158 13.5151 7.39158 21.1739C7.39158 23.4451 7.93138 25.6636 9.01018 27.6179L7.39158 28.4629Z" fill="url(#paint0_linear_128_10889)"/>
<path id="Vector_2" d="M6.05397 31.4739C3.94374 28.3998 2.80762 24.8483 2.80762 21.1381C2.86176 11.0144 11.2485 2.79901 21.6369 2.79901C24.648 2.79974 27.615 3.50767 30.2888 4.86339C32.9627 6.2191 35.2654 8.18304 37.0036 10.5904L35.4885 11.6505C33.9266 9.47371 31.8527 7.69682 29.4418 6.46991C27.0309 5.24299 24.354 4.60208 21.6369 4.60127C12.2764 4.60127 4.70129 12.0216 4.70129 21.1911C4.70129 24.5302 5.72954 27.7637 7.62321 30.5197L6.05397 31.4739Z" fill="url(#paint1_linear_128_10889)"/>
<path id="Vector_3" d="M5.03171 34.749C1.78655 30.9352 0.00195312 26.1146 0.00195312 21.1884C0.00195312 9.53486 9.6825 8.7738e-05 21.6349 8.7738e-05C29.5846 8.7738e-05 36.8317 4.23759 40.6174 11.0709L38.9948 11.9187C37.3018 8.85636 34.7945 6.2993 31.7385 4.51822C28.6825 2.73714 25.1914 1.79833 21.6349 1.80119C10.7103 1.80119 1.84069 10.4882 1.84069 21.1884C1.84069 25.7439 3.46327 30.1405 6.43774 33.5836L5.03171 34.749Z" fill="url(#paint2_linear_128_10889)"/>
<path id="Vector_4" d="M15.8022 17.3397V18.7133H14.8852V23.5728H13.3745V18.7133H12.6191V17.3397H13.3745V16.2304C13.5905 16.6534 14.4531 16.7589 14.8852 17.3397H15.8022ZM20.8192 23.5728V20.4035C20.8192 19.5057 20.6576 18.5023 19.5245 18.5023C18.3915 18.5023 18.2293 19.5584 18.2293 20.4035V23.5728H16.7192V15.2798H18.2299V17.7622C18.7153 17.3397 19.2546 17.1282 19.8483 17.1282C20.7653 17.1282 21.6823 17.6567 22.0605 18.4491C22.276 18.9249 22.3299 19.5051 22.3299 20.0337V23.5728H20.8192ZM24.8653 20.0865V23.5722H23.3008V17.3397H24.7032V17.921C25.0814 17.3925 25.4046 17.1287 26.1061 17.1287H26.2139V18.5546C25.243 18.6078 24.8653 19.1359 24.8653 20.0865ZM27.0226 16.6534V15.2798H28.5333V16.6534H27.0226ZM27.0226 23.5722V17.3402H28.5333V23.5733H27.0231L27.0226 23.5722ZM33.0649 23.6255H31.8785L29.2886 17.3925H30.961L32.5256 21.5123L33.9824 17.3925H35.6547L33.0649 23.6255ZM39.4304 17.0759C39.0527 17.0759 38.6756 17.1287 38.3518 17.2342C37.0032 17.7095 36.0857 18.9771 36.0857 20.4562C36.0857 22.0936 37.2721 23.414 38.8367 23.731C39.6998 23.3607 40.4013 22.7272 40.7795 21.7766C40.7795 21.7238 40.7251 21.7238 40.7251 21.7766C40.4013 22.1991 39.9697 22.4107 39.4304 22.4107C38.6212 22.4107 37.9197 21.8294 37.7581 21.0898H42.7212C42.7751 20.826 42.829 20.6145 42.829 20.3507C42.7212 18.6073 41.2644 17.0759 39.4304 17.0759ZM37.6503 19.9282C37.8658 19.0831 38.5673 18.4491 39.4843 18.4491C39.8625 18.4491 40.1858 18.5551 40.4557 18.7128C40.8328 18.9771 41.1566 19.3996 41.2644 19.8749H37.6503V19.9282Z" fill="black"/>
<path id="Vector_5" d="M42.5058 21.6182C42.128 22.8857 40.7793 23.7837 39.431 23.7837C39.269 23.7837 39.1073 23.7837 38.9453 23.7307C39.0532 23.6781 39.1611 23.6781 39.269 23.6251C39.9704 23.3082 40.4556 22.8331 40.7793 22.1463C40.9413 21.7764 41.3191 21.6182 41.6965 21.6182H42.5058Z" fill="url(#paint3_linear_128_10889)"/>
<path id="Vector_6" d="M14.8857 15.3329V16.9172C14.4542 16.3361 13.537 16.2305 13.3754 15.808C13.3213 15.7554 13.3213 15.7023 13.3213 15.5967V14.065C13.8607 13.9067 14.8857 14.5405 14.8857 15.3329Z" fill="url(#paint4_linear_128_10889)"/>
<path id="Vector_7" d="M30.4218 27.2169V26.8476C30.314 26.9532 30.2596 27.0587 30.1524 27.1114C29.9351 27.2196 29.6941 27.2741 29.4504 27.2702C28.6956 27.2702 28.1562 26.6889 28.1562 25.9493C28.1562 25.2103 28.695 24.629 29.5048 24.629C29.8286 24.629 30.2596 24.7877 30.4218 25.0515V24.6822H30.8533V27.1647H30.4218V27.2169ZM29.5048 25.1047C29.0188 25.1047 28.6417 25.5273 28.6417 26.0026C28.6417 26.4779 29.0188 26.9004 29.5048 26.9004C29.9902 26.9004 30.3679 26.4779 30.3679 26.0026C30.4218 25.5273 30.0441 25.1047 29.5048 25.1047ZM32.6873 28.2208C32.3096 28.2208 32.0397 28.1147 31.7703 27.8505C31.6082 27.6927 31.5548 27.6395 31.4465 27.4284H31.9864C32.148 27.6922 32.4179 27.7982 32.7412 27.7982C33.2805 27.7982 33.6582 27.4812 33.6582 26.9532V26.8999C33.5483 27.0341 33.4086 27.1419 33.2497 27.2152C33.0907 27.2884 32.9168 27.3251 32.7412 27.3224C32.5636 27.3241 32.3875 27.2911 32.2231 27.2254C32.0587 27.1596 31.9093 27.0624 31.7838 26.9395C31.6582 26.8165 31.5589 26.6703 31.4918 26.5093C31.4246 26.3484 31.3909 26.1759 31.3926 26.0021C31.3926 25.2625 32.0402 24.6822 32.7951 24.6822C33.1733 24.6822 33.4427 24.7877 33.7121 25.0515V24.7345H34.0903V26.9532C34.0903 27.745 33.4427 28.2208 32.6873 28.2208ZM32.6873 25.1042C32.2019 25.1042 31.7703 25.5268 31.7703 26.0021C31.7703 26.4774 32.148 26.8999 32.6334 26.8999C33.1727 26.8999 33.5504 26.4774 33.5504 25.9493C33.6043 25.474 33.1727 25.1042 32.6873 25.1042ZM35.1689 25.8971V27.2702H34.6834V24.7877H35.1689V24.9987C35.3305 24.7877 35.5466 24.735 35.8165 24.735V25.2103C35.3305 25.2103 35.1689 25.4213 35.1689 25.8971ZM36.1941 24.4707V23.9421H36.6796V24.4697H36.1941V24.4707ZM36.1941 27.2174V24.735H36.6796V27.2174H36.1941ZM38.4053 27.3224C37.6504 27.3224 37.1111 26.7416 37.1111 26.0021C37.1111 25.2625 37.6499 24.6817 38.4053 24.6817C38.9451 24.6817 39.5383 25.0515 39.6466 25.5795H39.1067C38.9451 25.2625 38.7291 25.1042 38.4053 25.1042C37.9204 25.1042 37.5427 25.5268 37.5427 26.0021C37.5427 26.4779 37.866 26.8999 38.3519 26.8999C38.6752 26.8999 38.9451 26.6889 39.1067 26.4246H39.6466C39.5678 26.6862 39.4039 26.9155 39.1799 27.0776C38.9558 27.2396 38.6838 27.3256 38.4053 27.3224Z" fill="#48A64C"/>
</g>
<defs>
<linearGradient id="paint0_linear_128_10889" x1="-14.6182" y1="20.7191" x2="34.7943" y2="13.9289" gradientUnits="userSpaceOnUse">
<stop stop-color="#9ACB55"/>
<stop offset="1" stop-color="#0D9A49"/>
</linearGradient>
<linearGradient id="paint1_linear_128_10889" x1="-14.6605" y1="20.8123" x2="34.9" y2="13.9981" gradientUnits="userSpaceOnUse">
<stop stop-color="#9ACB55"/>
<stop offset="1" stop-color="#0D9A49"/>
</linearGradient>
<linearGradient id="paint2_linear_128_10889" x1="-14.6219" y1="20.9618" x2="34.9151" y2="14.1518" gradientUnits="userSpaceOnUse">
<stop stop-color="#9ACB55"/>
<stop offset="1" stop-color="#0D9A49"/>
</linearGradient>
<linearGradient id="paint3_linear_128_10889" x1="38.931" y1="22.7103" x2="42.484" y2="22.7103" gradientUnits="userSpaceOnUse">
<stop stop-color="#9ACB55"/>
<stop offset="1" stop-color="#0D9A49"/>
</linearGradient>
<linearGradient id="paint4_linear_128_10889" x1="13.2974" y1="15.481" x2="14.8812" y2="15.481" gradientUnits="userSpaceOnUse">
<stop stop-color="#9ACB55"/>
<stop offset="1" stop-color="#0D9A49"/>
</linearGradient>
<clipPath id="clip0_128_10889">
<rect width="43" height="35" fill="white"/>
</clipPath>
</defs>
</svg>
