<svg width="29" height="39" viewBox="0 0 29 39" fill="none" xmlns="http://www.w3.org/2000/svg">
<g id="United_States_Soccer_Federation_logo_2016 logo" clip-path="url(#clip0_128_10847)">
<path id="outline" d="M0 0V24.4948C0 27.1022 1.2658 29.5619 3.38583 31.0801L14.2228 38.8283L25.0559 31.0782C27.1759 29.5619 28.4398 27.1002 28.4398 24.4948V0H0Z" fill="#1F2742"/>
<path id="fill" d="M0.701172 0.700684V24.4947C0.701172 26.8768 1.85826 29.1249 3.79385 30.5092L14.2231 37.9681L24.6485 30.5092C26.5841 29.1249 27.7393 26.8768 27.7393 24.4947V0.700684H0.701172Z" fill="white"/>
<g id="stripes">
<path id="Vector" d="M4.29396 28.5855L4.98705 29.0941C4.63565 28.6185 4.40851 28.0496 4.33667 27.4497C4.3192 27.3099 4.31143 27.1702 4.31143 27.0284V14.1122L2.51951 13.2852L2.51562 24.8851C2.51562 26.3664 3.12523 27.7273 4.29396 28.5855Z" fill="#BB2533"/>
<path id="Vector_2" d="M6.11719 29.8355L7.913 31.1323V15.7699L6.11719 14.9429V29.8355Z" fill="#BB2533"/>
<path id="Vector_3" d="M11.5165 17.4301L9.7207 16.603V32.4353L11.5165 33.7321V17.4301Z" fill="#BB2533"/>
<path id="Vector_4" d="M13.3213 18.2627V35.0365L14.2357 35.6966L15.1171 35.0598V18.2627L14.2163 18.6743L13.3213 18.2627Z" fill="#BB2533"/>
<path id="Vector_5" d="M16.9229 33.7555L18.7187 32.4586V16.6108L16.9229 17.434V33.7555Z" fill="#BB2533"/>
<path id="Vector_6" d="M20.5264 31.1538L22.3202 29.8569V14.9604L20.5264 15.7836V31.1538Z" fill="#BB2533"/>
<path id="Vector_7" d="M24.1297 14.1102V27.0245C24.1297 27.1663 24.12 27.306 24.1045 27.4458C24.0326 28.0477 23.8055 28.6146 23.4541 29.0921L24.1472 28.5835C25.3159 27.7234 25.9255 26.3644 25.9255 24.8812L25.9216 13.2812L24.1297 14.1102Z" fill="#BB2533"/>
</g>
<g id="usa">
<path id="a" d="M21.6717 12.9259L19.5439 13.8966V3.50419C19.5439 2.9936 19.9575 2.58008 20.4681 2.58008H25.9234V10.0856C25.9234 10.6253 25.6089 11.1145 25.1178 11.3397L23.7976 11.9455V9.59635L22.0542 10.3982C21.8212 10.5049 21.6717 10.7379 21.6717 10.9942V12.9259ZM21.6717 8.23736L23.7956 7.26083V4.60109H21.6717V8.23736Z" fill="#1F2742"/>
<path id="s" d="M11.8282 15.2265C11.3409 15.0032 11.0303 14.5159 11.0303 13.9801V10.8719L13.1581 11.8581V13.6597L14.2181 14.149L15.2781 13.6597V10.6156L11.8573 9.04112C11.3545 8.81009 11.0303 8.30727 11.0303 7.75202V3.48091C11.0303 2.9839 11.4321 2.58203 11.9291 2.58203H16.507C17.004 2.58203 17.4059 2.98585 17.4059 3.48091V7.13659L15.2781 6.15035V4.6011H13.1561V7.25113L16.5769 8.82174C17.0817 9.05277 17.4039 9.5556 17.4039 10.1108V13.9801C17.4039 14.5159 17.0914 15.0032 16.6041 15.2284L14.2161 16.3253L11.8282 15.2265Z" fill="#1F2742"/>
<path id="u" d="M3.34268 11.33L8.89124 13.883V2.58008H6.76539V10.5729L5.00065 9.76137C4.78321 9.66236 4.64537 9.44492 4.64537 9.20613V2.58008H2.51758V10.039C2.51758 10.5942 2.83985 11.0971 3.34268 11.33Z" fill="#1F2742"/>
</g>
</g>
<defs>
<clipPath id="clip0_128_10847">
<rect width="28.4398" height="38.8283" fill="white"/>
</clipPath>
</defs>
</svg>
