<svg width="21" height="21" viewBox="0 0 21 21" fill="none" xmlns="http://www.w3.org/2000/svg">
<rect x="1.19434" y="1.19434" width="18.0083" height="18.0083" rx="3.11" fill="#002E52"/>
<path d="M17.4833 0H2.91389C2.14108 0 1.39992 0.306998 0.853459 0.853459C0.306998 1.39992 0 2.14108 0 2.91389L0 17.4833C0 18.2561 0.306998 18.9973 0.853459 19.5437C1.39992 20.0902 2.14108 20.3972 2.91389 20.3972H17.4833C18.2561 20.3972 18.9973 20.0902 19.5437 19.5437C20.0902 18.9973 20.3972 18.2561 20.3972 17.4833V2.91389C20.3972 2.14108 20.0902 1.39992 19.5437 0.853459C18.9973 0.306998 18.2561 0 17.4833 0ZM18.9402 17.4833C18.9402 17.8697 18.7867 18.2403 18.5135 18.5135C18.2403 18.7867 17.8697 18.9402 17.4833 18.9402H2.91389C2.52748 18.9402 2.1569 18.7867 1.88367 18.5135C1.61044 18.2403 1.45695 17.8697 1.45695 17.4833V2.91389C1.45695 2.52748 1.61044 2.1569 1.88367 1.88367C2.1569 1.61044 2.52748 1.45695 2.91389 1.45695H17.4833C17.8697 1.45695 18.2403 1.61044 18.5135 1.88367C18.7867 2.1569 18.9402 2.52748 18.9402 2.91389V17.4833Z" fill="white"/>
<path d="M15.1668 5.62359L8.29001 12.5149L4.45825 8.74145C4.24517 8.553 3.97053 8.44897 3.68607 8.44897C3.40162 8.44897 3.12698 8.553 2.9139 8.74145C2.74839 8.94818 2.6582 9.20511 2.6582 9.46993C2.6582 9.73475 2.74839 9.99167 2.9139 10.1984L7.50327 14.7878C7.7373 14.9329 8.00142 15.0226 8.27543 15.05C8.54882 15.0419 8.81319 14.9504 9.03306 14.7878L16.682 7.13882C16.8024 7.05092 16.9004 6.93583 16.9679 6.80291C17.0355 6.67 17.0707 6.52301 17.0707 6.37393C17.0707 6.22484 17.0355 6.07786 16.9679 5.94494C16.9004 5.81203 16.8024 5.69694 16.682 5.60903C16.4692 5.43047 16.1995 5.33381 15.9217 5.33648C15.6439 5.33915 15.3762 5.44097 15.1668 5.62359Z" fill="white"/>
</svg>
