<svg width="21" height="22" viewBox="0 0 21 22" fill="none" xmlns="http://www.w3.org/2000/svg">
<rect x="1.19434" y="2.07471" width="18.0083" height="18.0083" rx="3.11" fill="#002E52"/>
<path d="M17.4833 0.880371H2.91389C2.14108 0.880371 1.39992 1.18737 0.853459 1.73383C0.306998 2.28029 0 3.02145 0 3.79426L0 18.3637C0 19.1365 0.306998 19.8776 0.853459 20.4241C1.39992 20.9706 2.14108 21.2776 2.91389 21.2776H17.4833C18.2561 21.2776 18.9973 20.9706 19.5437 20.4241C20.0902 19.8776 20.3972 19.1365 20.3972 18.3637V3.79426C20.3972 3.02145 20.0902 2.28029 19.5437 1.73383C18.9973 1.18737 18.2561 0.880371 17.4833 0.880371ZM18.9402 18.3637C18.9402 18.7501 18.7867 19.1207 18.5135 19.3939C18.2403 19.6671 17.8697 19.8206 17.4833 19.8206H2.91389C2.52748 19.8206 2.1569 19.6671 1.88367 19.3939C1.61044 19.1207 1.45695 18.7501 1.45695 18.3637V3.79426C1.45695 3.40786 1.61044 3.03728 1.88367 2.76405C2.1569 2.49082 2.52748 2.33732 2.91389 2.33732H17.4833C17.8697 2.33732 18.2403 2.49082 18.5135 2.76405C18.7867 3.03728 18.9402 3.40786 18.9402 3.79426V18.3637Z" fill="white"/>
</svg>
